M48
; DRILL file {KiCad (5.1.10)-1} date 01/02/22 16:59:17
; FORMAT={-:-/ absolute / inch / decimal}
; #@! TF.CreationDate,2022-01-02T16:59:17+01:00
; #@! TF.GenerationSoftware,Kicad,Pcbnew,(5.1.10)-1
; #@! TF.FileFunction,Plated,1,2,PTH
FMAT,2
INCH
T1C0.0157
T2C0.0315
T3C0.0394
T4C0.0472
T5C0.0630
%
G90
G05
T1
X3.55Y-2.35
X3.55Y-2.45
X3.55Y-3.0
X3.55Y-3.1
X3.55Y-3.2
X3.55Y-3.3
X3.55Y-3.4
X3.55Y-4.0
X3.75Y-2.65
X3.75Y-3.9
X3.7943Y-2.7557
X3.8Y-4.4
X3.8Y-4.45
X3.85Y-2.55
X3.85Y-3.05
X3.85Y-3.8
X3.9Y-2.45
X3.9Y-3.45
X3.9Y-3.65
X3.9Y-3.95
X3.95Y-2.7
X3.95Y-4.65
X3.9677Y-3.9823
X4.0Y-2.8
X4.0Y-4.1
X4.039Y-3.211
X4.05Y-2.9
X4.0642Y-3.0142
X4.0953Y-4.1953
X4.1Y-3.0
X4.1Y-3.1
X4.1469Y-3.7031
X4.15Y-2.6
X4.15Y-3.6
X4.15Y-4.15
X4.2Y-3.9
X4.25Y-3.5
X4.25Y-5.0
X4.3Y-3.0
X4.3Y-3.75
X4.3Y-4.7
X4.3469Y-5.0469
X4.4Y-2.1
X4.4Y-2.35
X4.4Y-3.3
X4.4Y-3.5
X4.4Y-3.8
X4.4Y-4.8
X4.45Y-3.1
X4.45Y-4.2
X4.5Y-4.25
X4.5Y-5.5
X4.55Y-3.9
X4.55Y-4.95
X4.6Y-3.5
X4.65Y-4.15
X4.6943Y-3.7443
X4.7Y-2.65
X4.7Y-3.4
X4.7Y-4.2
X4.75Y-3.85
X4.8Y-4.1
X4.9Y-4.15
X4.95Y-3.25
X5.0Y-3.4
X5.0Y-4.8
X5.0Y-4.95
X5.05Y-4.75
X5.05Y-4.9
X5.1Y-2.45
X5.1Y-3.35
X5.1Y-3.7
X5.1Y-4.05
X5.15Y-2.7
X5.15Y-3.1
X5.15Y-3.7
X5.15Y-4.0
X5.2Y-3.0
X5.3Y-3.4
X5.4Y-3.85
X5.4Y-4.0
X5.4Y-4.25
X5.5Y-3.3
X5.5Y-4.05
X5.65Y-4.1
X5.75Y-4.6
X5.8Y-2.6
X5.8Y-3.75
X5.8Y-3.8
X5.8Y-4.0
X5.8461Y-3.9039
X5.85Y-4.05
X5.85Y-4.55
X5.85Y-4.7
X5.9Y-3.9
X5.9Y-4.85
X5.95Y-5.45
X6.6Y-4.9
X6.6Y-5.4
T2
X3.4921Y-2.522
X3.4921Y-2.6205
X3.4921Y-2.7189
X3.4921Y-2.8173
X3.4921Y-2.9157
X3.4921Y-3.0142
X3.4921Y-3.1126
X3.4921Y-3.211
X3.4921Y-3.3094
X3.4921Y-3.4079
X3.4921Y-3.5063
X3.4921Y-3.6047
X3.4921Y-3.7031
X3.4921Y-3.8016
X3.4921Y-3.9
X3.4921Y-3.9984
X3.4921Y-4.0969
X3.4921Y-4.1953
X3.4921Y-4.2937
X3.4921Y-4.3921
X3.4921Y-4.4906
X3.4921Y-4.589
X3.4921Y-4.6874
X3.4921Y-4.7858
X3.4921Y-4.8843
X3.4921Y-4.9827
X3.4921Y-5.0811
X3.4921Y-5.1795
X3.4921Y-5.278
X3.689Y-2.522
X3.689Y-2.6205
X3.689Y-2.7189
X3.689Y-2.8173
X3.689Y-2.9157
X3.689Y-3.0142
X3.689Y-3.1126
X3.689Y-3.211
X3.689Y-3.3094
X3.689Y-3.4079
X3.689Y-3.5063
X3.689Y-3.6047
X3.689Y-3.7031
X3.689Y-3.8016
X3.689Y-3.9
X3.689Y-3.9984
X3.689Y-4.0969
X3.689Y-4.1953
X3.689Y-4.2937
X3.689Y-4.3921
X3.689Y-4.4906
X3.689Y-4.589
X3.689Y-4.6874
X3.689Y-4.7858
X3.689Y-4.8843
X3.689Y-4.9827
X3.689Y-5.0811
X3.689Y-5.1795
X3.689Y-5.278
X4.0274Y-5.5154
X4.0274Y-5.665
X4.0293Y-5.2634
X4.0293Y-5.3634
X4.3274Y-5.5154
X4.3274Y-5.665
X4.3293Y-5.2634
X4.3293Y-5.3634
X4.4545Y-5.2614
X4.6016Y-5.65
X4.7Y-5.65
X4.7545Y-5.2614
X4.8Y-2.4
X4.8Y-2.5
X4.8Y-2.6
X4.8Y-2.7
X4.8Y-2.8
X4.8Y-2.9
X4.8Y-3.0
X4.8Y-3.1
X4.8Y-3.2
X4.8Y-3.3
X4.8Y-3.4
X4.8Y-3.5
X4.8Y-3.6
X4.8Y-3.7
X4.8Y-3.9063
X4.8Y-4.3
X4.9Y-4.5
X4.9Y-4.6
X4.9Y-4.7
X4.9Y-4.8
X4.9Y-4.9
X4.9Y-5.0
X4.9Y-5.1
X4.9Y-5.2
X4.9Y-5.3
X4.9Y-5.4
X5.0063Y-5.7
X5.2Y-4.5
X5.2Y-4.6
X5.2Y-4.7
X5.2Y-4.8
X5.2Y-4.9
X5.2Y-5.0
X5.2Y-5.1
X5.2Y-5.2
X5.2Y-5.3
X5.2Y-5.4
X5.35Y-2.2
X5.4Y-2.4
X5.4Y-2.5
X5.4Y-2.6
X5.4Y-2.7
X5.4Y-2.8
X5.4Y-2.9
X5.4Y-3.0
X5.4Y-3.1
X5.4Y-3.2
X5.4Y-3.3
X5.4Y-3.4
X5.4Y-3.5
X5.4Y-3.6
X5.4Y-3.7
X5.4Y-5.7
X5.65Y-2.4
X5.65Y-2.5
X5.65Y-2.6
X5.65Y-2.7
X5.65Y-2.8
X5.65Y-2.9
X5.65Y-3.0
X5.65Y-3.1
X5.65Y-3.2
X5.65Y-3.3
X5.65Y-3.4
X5.65Y-3.5
X5.65Y-3.6
X5.65Y-3.7
X5.65Y-3.8
X5.65Y-3.9
X5.7437Y-2.2
X6.0563Y-4.15
X6.15Y-4.4
X6.15Y-4.5
X6.15Y-4.6
X6.15Y-4.7
X6.25Y-2.4
X6.25Y-2.5
X6.25Y-2.6
X6.25Y-2.7
X6.25Y-2.8
X6.25Y-2.9
X6.25Y-3.0
X6.25Y-3.1
X6.25Y-3.2
X6.25Y-3.3
X6.25Y-3.4
X6.25Y-3.5
X6.25Y-3.6
X6.25Y-3.7
X6.25Y-3.8
X6.25Y-3.9
X6.45Y-4.15
X6.45Y-4.4
X6.45Y-4.5
X6.45Y-4.6
X6.45Y-4.7
X6.65Y-4.3
X6.65Y-4.4
X6.65Y-4.5
X6.65Y-4.6
X6.65Y-4.7
T3
X3.209Y-2.45
X3.209Y-2.55
X3.209Y-2.65
X3.209Y-2.75
X3.209Y-2.85
X3.209Y-2.95
X3.209Y-3.05
X3.209Y-3.15
X3.209Y-3.25
X3.209Y-3.35
X3.209Y-3.45
X3.209Y-3.55
X3.209Y-3.65
X3.209Y-3.75
X3.209Y-3.85
X3.209Y-3.95
X3.209Y-4.05
X3.209Y-4.15
X3.209Y-4.25
X3.209Y-4.35
X3.209Y-4.45
X3.209Y-4.55
X3.209Y-4.65
X3.209Y-4.75
X3.209Y-4.85
X3.209Y-4.95
X3.209Y-5.05
X3.209Y-5.15
X3.209Y-5.25
X3.409Y-2.45
X3.409Y-2.55
X3.409Y-2.65
X3.409Y-2.75
X3.409Y-2.85
X3.409Y-2.95
X3.409Y-3.05
X3.409Y-3.15
X3.409Y-3.25
X3.409Y-3.35
X3.409Y-3.45
X3.409Y-3.55
X3.409Y-3.65
X3.409Y-3.75
X3.409Y-3.85
X3.409Y-3.95
X3.409Y-4.05
X3.409Y-4.15
X3.409Y-4.25
X3.409Y-4.35
X3.409Y-4.45
X3.409Y-4.55
X3.409Y-4.65
X3.409Y-4.75
X3.409Y-4.85
X3.409Y-4.95
X3.409Y-5.05
X3.409Y-5.15
X3.409Y-5.25
T4
X5.45Y-5.5
X6.4343Y-5.5
T5
X3.109Y-2.15
X3.109Y-5.65
X3.1969Y-2.276
X3.1969Y-5.524
T0
M30
