%TF.GenerationSoftware,KiCad,Pcbnew,(5.1.10)-1*%
%TF.CreationDate,2022-01-02T16:59:21+01:00*%
%TF.ProjectId,BasicROM,42617369-6352-44f4-9d2e-6b696361645f,rev?*%
%TF.SameCoordinates,Original*%
%TF.FileFunction,Other,User*%
%FSLAX46Y46*%
G04 Gerber Fmt 4.6, Leading zero omitted, Abs format (unit mm)*
G04 Created by KiCad (PCBNEW (5.1.10)-1) date 2022-01-02 16:59:21*
%MOMM*%
%LPD*%
G01*
G04 APERTURE LIST*
%ADD10C,0.050000*%
G04 APERTURE END LIST*
D10*
%TO.C,C6*%
X136980000Y-135450000D02*
X136980000Y-143950000D01*
X136980000Y-143950000D02*
X164880000Y-143950000D01*
X164880000Y-143950000D02*
X164880000Y-135450000D01*
X164880000Y-135450000D02*
X136980000Y-135450000D01*
%TO.C,U2*%
X120870000Y-59410000D02*
X120870000Y-95510000D01*
X120870000Y-95510000D02*
X138220000Y-95510000D01*
X138220000Y-95510000D02*
X138220000Y-59410000D01*
X138220000Y-59410000D02*
X120870000Y-59410000D01*
%TO.C,U4*%
X111044759Y-132140000D02*
X101244759Y-132140000D01*
X111044759Y-137790000D02*
X111044759Y-132140000D01*
X101244759Y-137790000D02*
X111044759Y-137790000D01*
X101244759Y-132140000D02*
X101244759Y-137790000D01*
%TO.C,R2*%
X110964759Y-142390000D02*
X101244759Y-142390000D01*
X110964759Y-145390000D02*
X110964759Y-142390000D01*
X101244759Y-145390000D02*
X110964759Y-145390000D01*
X101244759Y-142390000D02*
X101244759Y-145390000D01*
%TO.C,R1*%
X121814759Y-132140000D02*
X112094759Y-132140000D01*
X121814759Y-135140000D02*
X121814759Y-132140000D01*
X112094759Y-135140000D02*
X121814759Y-135140000D01*
X112094759Y-132140000D02*
X112094759Y-135140000D01*
%TO.C,D1*%
X110964759Y-138840000D02*
X101244759Y-138840000D01*
X110964759Y-141340000D02*
X110964759Y-138840000D01*
X101244759Y-141340000D02*
X110964759Y-141340000D01*
X101244759Y-138840000D02*
X101244759Y-141340000D01*
%TO.C,C5*%
X121530000Y-143510000D02*
G75*
G03*
X121530000Y-143510000I-3400000J0D01*
G01*
%TO.C,U3*%
X142460000Y-59410000D02*
X142460000Y-100610000D01*
X142460000Y-100610000D02*
X159810000Y-100610000D01*
X159810000Y-100610000D02*
X159810000Y-59410000D01*
X159810000Y-59410000D02*
X142460000Y-59410000D01*
%TO.C,U1*%
X123360000Y-112750000D02*
X123360000Y-138700000D01*
X123360000Y-138700000D02*
X133160000Y-138700000D01*
X133160000Y-138700000D02*
X133160000Y-112750000D01*
X133160000Y-112750000D02*
X123360000Y-112750000D01*
%TO.C,SW1*%
X152560000Y-109360000D02*
X152560000Y-121760000D01*
X152560000Y-121760000D02*
X165710000Y-121760000D01*
X165710000Y-121760000D02*
X165710000Y-109360000D01*
X165710000Y-109360000D02*
X152560000Y-109360000D01*
%TO.C,RN1*%
X170560000Y-107520000D02*
X167260000Y-107520000D01*
X167260000Y-107520000D02*
X167260000Y-121120000D01*
X167260000Y-121120000D02*
X170560000Y-121120000D01*
X170560000Y-121120000D02*
X170560000Y-107520000D01*
%TO.C,C4*%
X164880000Y-106960000D02*
X164880000Y-103860000D01*
X164880000Y-103860000D02*
X152780000Y-103860000D01*
X152780000Y-103860000D02*
X152780000Y-106960000D01*
X152780000Y-106960000D02*
X164880000Y-106960000D01*
%TO.C,C3*%
X138210000Y-146330000D02*
X138210000Y-143230000D01*
X138210000Y-143230000D02*
X126110000Y-143230000D01*
X126110000Y-143230000D02*
X126110000Y-146330000D01*
X126110000Y-146330000D02*
X138210000Y-146330000D01*
%TO.C,C2*%
X134840000Y-54330000D02*
X134840000Y-57430000D01*
X134840000Y-57430000D02*
X146940000Y-57430000D01*
X146940000Y-57430000D02*
X146940000Y-54330000D01*
X146940000Y-54330000D02*
X134840000Y-54330000D01*
%TO.C,C1*%
X120370000Y-110270000D02*
X123470000Y-110270000D01*
X123470000Y-110270000D02*
X123470000Y-98170000D01*
X123470000Y-98170000D02*
X120370000Y-98170000D01*
X120370000Y-98170000D02*
X120370000Y-110270000D01*
%TD*%
M02*
