%TF.GenerationSoftware,KiCad,Pcbnew,(5.1.10)-1*%
%TF.CreationDate,2022-01-02T16:59:21+01:00*%
%TF.ProjectId,BasicROM,42617369-6352-44f4-9d2e-6b696361645f,rev?*%
%TF.SameCoordinates,Original*%
%TF.FileFunction,Other,Fab,Top*%
%FSLAX46Y46*%
G04 Gerber Fmt 4.6, Leading zero omitted, Abs format (unit mm)*
G04 Created by KiCad (PCBNEW (5.1.10)-1) date 2022-01-02 16:59:21*
%MOMM*%
%LPD*%
G01*
G04 APERTURE LIST*
%ADD10C,0.100000*%
%ADD11C,0.150000*%
%ADD12C,0.120000*%
%ADD13C,0.114000*%
G04 APERTURE END LIST*
D10*
%TO.C,C6*%
X141930000Y-135700000D02*
X141930000Y-143700000D01*
X159930000Y-135700000D02*
X159930000Y-143700000D01*
X141930000Y-135700000D02*
X143610000Y-135700000D01*
X143610000Y-135700000D02*
X144510000Y-136600000D01*
X144510000Y-136600000D02*
X145410000Y-135700000D01*
X145410000Y-135700000D02*
X159930000Y-135700000D01*
X141930000Y-143700000D02*
X143610000Y-143700000D01*
X143610000Y-143700000D02*
X144510000Y-142800000D01*
X144510000Y-142800000D02*
X145410000Y-143700000D01*
X145410000Y-143700000D02*
X159930000Y-143700000D01*
X138430000Y-139700000D02*
X141930000Y-139700000D01*
X163430000Y-139700000D02*
X159930000Y-139700000D01*
X143630000Y-139700000D02*
X145430000Y-139700000D01*
X144530000Y-138800000D02*
X144530000Y-140600000D01*
%TO.C,U2*%
X123175000Y-59690000D02*
X136905000Y-59690000D01*
X136905000Y-59690000D02*
X136905000Y-95250000D01*
X136905000Y-95250000D02*
X122175000Y-95250000D01*
X122175000Y-95250000D02*
X122175000Y-60690000D01*
X122175000Y-60690000D02*
X123175000Y-59690000D01*
%TO.C,U4*%
X102979759Y-133420000D02*
X103979759Y-132420000D01*
X102979759Y-137500000D02*
X102979759Y-133420000D01*
X109329759Y-137500000D02*
X102979759Y-137500000D01*
X109329759Y-132420000D02*
X109329759Y-137500000D01*
X103979759Y-132420000D02*
X109329759Y-132420000D01*
%TO.C,R2*%
X109914759Y-143890000D02*
X109254759Y-143890000D01*
X102294759Y-143890000D02*
X102954759Y-143890000D01*
X109254759Y-142640000D02*
X102954759Y-142640000D01*
X109254759Y-145140000D02*
X109254759Y-142640000D01*
X102954759Y-145140000D02*
X109254759Y-145140000D01*
X102954759Y-142640000D02*
X102954759Y-145140000D01*
%TO.C,R1*%
X120764759Y-133640000D02*
X120104759Y-133640000D01*
X113144759Y-133640000D02*
X113804759Y-133640000D01*
X120104759Y-132390000D02*
X113804759Y-132390000D01*
X120104759Y-134890000D02*
X120104759Y-132390000D01*
X113804759Y-134890000D02*
X120104759Y-134890000D01*
X113804759Y-132390000D02*
X113804759Y-134890000D01*
%TO.C,D1*%
X104604759Y-139090000D02*
X104604759Y-141090000D01*
X104804759Y-139090000D02*
X104804759Y-141090000D01*
X104704759Y-139090000D02*
X104704759Y-141090000D01*
X109914759Y-140090000D02*
X108104759Y-140090000D01*
X102294759Y-140090000D02*
X104104759Y-140090000D01*
X108104759Y-139090000D02*
X104104759Y-139090000D01*
X108104759Y-141090000D02*
X108104759Y-139090000D01*
X104104759Y-141090000D02*
X108104759Y-141090000D01*
X104104759Y-139090000D02*
X104104759Y-141090000D01*
%TO.C,C5*%
X120508972Y-145198500D02*
X120508972Y-144568500D01*
X120823972Y-144883500D02*
X120193972Y-144883500D01*
X121280000Y-143510000D02*
G75*
G03*
X121280000Y-143510000I-3150000J0D01*
G01*
%TO.C,U3*%
X144765000Y-59690000D02*
X158495000Y-59690000D01*
X158495000Y-59690000D02*
X158495000Y-100330000D01*
X158495000Y-100330000D02*
X143765000Y-100330000D01*
X143765000Y-100330000D02*
X143765000Y-60690000D01*
X143765000Y-60690000D02*
X144765000Y-59690000D01*
%TO.C,U1*%
X126095000Y-113030000D02*
X131445000Y-113030000D01*
X131445000Y-113030000D02*
X131445000Y-138430000D01*
X131445000Y-138430000D02*
X125095000Y-138430000D01*
X125095000Y-138430000D02*
X125095000Y-114030000D01*
X125095000Y-114030000D02*
X126095000Y-113030000D01*
%TO.C,SW1*%
X155620000Y-109710000D02*
X165420000Y-109710000D01*
X165420000Y-109710000D02*
X165420000Y-121430000D01*
X165420000Y-121430000D02*
X154620000Y-121430000D01*
X154620000Y-121430000D02*
X154620000Y-110710000D01*
X154620000Y-110710000D02*
X155620000Y-109710000D01*
X154620000Y-111010000D02*
X154620000Y-112510000D01*
X154620000Y-112510000D02*
X152820000Y-112510000D01*
X152820000Y-112510000D02*
X152820000Y-111010000D01*
X152820000Y-111010000D02*
X154620000Y-111010000D01*
X154620000Y-113550000D02*
X154620000Y-115050000D01*
X154620000Y-115050000D02*
X152820000Y-115050000D01*
X152820000Y-115050000D02*
X152820000Y-113550000D01*
X152820000Y-113550000D02*
X154620000Y-113550000D01*
X154620000Y-116090000D02*
X154620000Y-117590000D01*
X154620000Y-117590000D02*
X152820000Y-117590000D01*
X152820000Y-117590000D02*
X152820000Y-116090000D01*
X152820000Y-116090000D02*
X154620000Y-116090000D01*
X154620000Y-118630000D02*
X154620000Y-120130000D01*
X154620000Y-120130000D02*
X152820000Y-120130000D01*
X152820000Y-120130000D02*
X152820000Y-118630000D01*
X152820000Y-118630000D02*
X154620000Y-118630000D01*
%TO.C,RN1*%
X170160000Y-107930000D02*
X167660000Y-107930000D01*
X167660000Y-107930000D02*
X167660000Y-120670000D01*
X167660000Y-120670000D02*
X170160000Y-120670000D01*
X170160000Y-120670000D02*
X170160000Y-107930000D01*
X170160000Y-110490000D02*
X167660000Y-110490000D01*
%TO.C,C4*%
X160730000Y-106710000D02*
X160730000Y-104110000D01*
X160730000Y-104110000D02*
X156930000Y-104110000D01*
X156930000Y-104110000D02*
X156930000Y-106710000D01*
X156930000Y-106710000D02*
X160730000Y-106710000D01*
X163830000Y-105410000D02*
X160730000Y-105410000D01*
X153830000Y-105410000D02*
X156930000Y-105410000D01*
%TO.C,C3*%
X134060000Y-146080000D02*
X134060000Y-143480000D01*
X134060000Y-143480000D02*
X130260000Y-143480000D01*
X130260000Y-143480000D02*
X130260000Y-146080000D01*
X130260000Y-146080000D02*
X134060000Y-146080000D01*
X137160000Y-144780000D02*
X134060000Y-144780000D01*
X127160000Y-144780000D02*
X130260000Y-144780000D01*
%TO.C,C2*%
X138990000Y-54580000D02*
X138990000Y-57180000D01*
X138990000Y-57180000D02*
X142790000Y-57180000D01*
X142790000Y-57180000D02*
X142790000Y-54580000D01*
X142790000Y-54580000D02*
X138990000Y-54580000D01*
X135890000Y-55880000D02*
X138990000Y-55880000D01*
X145890000Y-55880000D02*
X142790000Y-55880000D01*
%TO.C,C1*%
X120620000Y-106120000D02*
X123220000Y-106120000D01*
X123220000Y-106120000D02*
X123220000Y-102320000D01*
X123220000Y-102320000D02*
X120620000Y-102320000D01*
X120620000Y-102320000D02*
X120620000Y-106120000D01*
X121920000Y-109220000D02*
X121920000Y-106120000D01*
X121920000Y-99220000D02*
X121920000Y-102320000D01*
%TD*%
%TO.C,C6*%
D11*
X149310952Y-145272380D02*
X148739523Y-145272380D01*
X149025238Y-145272380D02*
X149025238Y-144272380D01*
X148930000Y-144415238D01*
X148834761Y-144510476D01*
X148739523Y-144558095D01*
X149930000Y-144272380D02*
X150025238Y-144272380D01*
X150120476Y-144320000D01*
X150168095Y-144367619D01*
X150215714Y-144462857D01*
X150263333Y-144653333D01*
X150263333Y-144891428D01*
X150215714Y-145081904D01*
X150168095Y-145177142D01*
X150120476Y-145224761D01*
X150025238Y-145272380D01*
X149930000Y-145272380D01*
X149834761Y-145224761D01*
X149787142Y-145177142D01*
X149739523Y-145081904D01*
X149691904Y-144891428D01*
X149691904Y-144653333D01*
X149739523Y-144462857D01*
X149787142Y-144367619D01*
X149834761Y-144320000D01*
X149930000Y-144272380D01*
X150882380Y-144272380D02*
X150977619Y-144272380D01*
X151072857Y-144320000D01*
X151120476Y-144367619D01*
X151168095Y-144462857D01*
X151215714Y-144653333D01*
X151215714Y-144891428D01*
X151168095Y-145081904D01*
X151120476Y-145177142D01*
X151072857Y-145224761D01*
X150977619Y-145272380D01*
X150882380Y-145272380D01*
X150787142Y-145224761D01*
X150739523Y-145177142D01*
X150691904Y-145081904D01*
X150644285Y-144891428D01*
X150644285Y-144653333D01*
X150691904Y-144462857D01*
X150739523Y-144367619D01*
X150787142Y-144320000D01*
X150882380Y-144272380D01*
X151644285Y-144605714D02*
X151644285Y-145605714D01*
X152120476Y-145129523D02*
X152168095Y-145224761D01*
X152263333Y-145272380D01*
X151644285Y-145129523D02*
X151691904Y-145224761D01*
X151787142Y-145272380D01*
X151977619Y-145272380D01*
X152072857Y-145224761D01*
X152120476Y-145129523D01*
X152120476Y-144605714D01*
X153025238Y-144748571D02*
X152691904Y-144748571D01*
X152691904Y-145272380D02*
X152691904Y-144272380D01*
X153168095Y-144272380D01*
X150763333Y-140057142D02*
X150715714Y-140104761D01*
X150572857Y-140152380D01*
X150477619Y-140152380D01*
X150334761Y-140104761D01*
X150239523Y-140009523D01*
X150191904Y-139914285D01*
X150144285Y-139723809D01*
X150144285Y-139580952D01*
X150191904Y-139390476D01*
X150239523Y-139295238D01*
X150334761Y-139200000D01*
X150477619Y-139152380D01*
X150572857Y-139152380D01*
X150715714Y-139200000D01*
X150763333Y-139247619D01*
X151620476Y-139152380D02*
X151430000Y-139152380D01*
X151334761Y-139200000D01*
X151287142Y-139247619D01*
X151191904Y-139390476D01*
X151144285Y-139580952D01*
X151144285Y-139961904D01*
X151191904Y-140057142D01*
X151239523Y-140104761D01*
X151334761Y-140152380D01*
X151525238Y-140152380D01*
X151620476Y-140104761D01*
X151668095Y-140057142D01*
X151715714Y-139961904D01*
X151715714Y-139723809D01*
X151668095Y-139628571D01*
X151620476Y-139580952D01*
X151525238Y-139533333D01*
X151334761Y-139533333D01*
X151239523Y-139580952D01*
X151191904Y-139628571D01*
X151144285Y-139723809D01*
%TO.C,X1*%
X77652380Y-97324404D02*
X76652380Y-97324404D01*
X77652380Y-96752976D02*
X77080952Y-97181547D01*
X76652380Y-96752976D02*
X77223809Y-97324404D01*
X77652380Y-95800595D02*
X77652380Y-96372023D01*
X77652380Y-96086309D02*
X76652380Y-96086309D01*
X76795238Y-96181547D01*
X76890476Y-96276785D01*
X76938095Y-96372023D01*
X76652380Y-94895833D02*
X76652380Y-95372023D01*
X77128571Y-95419642D01*
X77080952Y-95372023D01*
X77033333Y-95276785D01*
X77033333Y-95038690D01*
X77080952Y-94943452D01*
X77128571Y-94895833D01*
X77223809Y-94848214D01*
X77461904Y-94848214D01*
X77557142Y-94895833D01*
X77604761Y-94943452D01*
X77652380Y-95038690D01*
X77652380Y-95276785D01*
X77604761Y-95372023D01*
X77557142Y-95419642D01*
X76747619Y-94467261D02*
X76700000Y-94419642D01*
X76652380Y-94324404D01*
X76652380Y-94086309D01*
X76700000Y-93991071D01*
X76747619Y-93943452D01*
X76842857Y-93895833D01*
X76938095Y-93895833D01*
X77080952Y-93943452D01*
X77652380Y-94514880D01*
X77652380Y-93895833D01*
X76652380Y-93276785D02*
X76652380Y-93181547D01*
X76700000Y-93086309D01*
X76747619Y-93038690D01*
X76842857Y-92991071D01*
X77033333Y-92943452D01*
X77271428Y-92943452D01*
X77461904Y-92991071D01*
X77557142Y-93038690D01*
X77604761Y-93086309D01*
X77652380Y-93181547D01*
X77652380Y-93276785D01*
X77604761Y-93372023D01*
X77557142Y-93419642D01*
X77461904Y-93467261D01*
X77271428Y-93514880D01*
X77033333Y-93514880D01*
X76842857Y-93467261D01*
X76747619Y-93419642D01*
X76700000Y-93372023D01*
X76652380Y-93276785D01*
X77747619Y-92752976D02*
X77747619Y-91991071D01*
X76747619Y-91800595D02*
X76700000Y-91752976D01*
X76652380Y-91657738D01*
X76652380Y-91419642D01*
X76700000Y-91324404D01*
X76747619Y-91276785D01*
X76842857Y-91229166D01*
X76938095Y-91229166D01*
X77080952Y-91276785D01*
X77652380Y-91848214D01*
X77652380Y-91229166D01*
X77652380Y-90895833D02*
X76985714Y-90372023D01*
X76985714Y-90895833D02*
X77652380Y-90372023D01*
X76747619Y-90038690D02*
X76700000Y-89991071D01*
X76652380Y-89895833D01*
X76652380Y-89657738D01*
X76700000Y-89562500D01*
X76747619Y-89514880D01*
X76842857Y-89467261D01*
X76938095Y-89467261D01*
X77080952Y-89514880D01*
X77652380Y-90086309D01*
X77652380Y-89467261D01*
X77652380Y-88991071D02*
X77652380Y-88800595D01*
X77604761Y-88705357D01*
X77557142Y-88657738D01*
X77414285Y-88562500D01*
X77223809Y-88514880D01*
X76842857Y-88514880D01*
X76747619Y-88562500D01*
X76700000Y-88610119D01*
X76652380Y-88705357D01*
X76652380Y-88895833D01*
X76700000Y-88991071D01*
X76747619Y-89038690D01*
X76842857Y-89086309D01*
X77080952Y-89086309D01*
X77176190Y-89038690D01*
X77223809Y-88991071D01*
X77271428Y-88895833D01*
X77271428Y-88705357D01*
X77223809Y-88610119D01*
X77176190Y-88562500D01*
X77080952Y-88514880D01*
X77271428Y-88086309D02*
X77271428Y-87324404D01*
X77366666Y-86895833D02*
X77366666Y-86419642D01*
X77652380Y-86991071D02*
X76652380Y-86657738D01*
X77652380Y-86324404D01*
X77557142Y-85419642D02*
X77604761Y-85467261D01*
X77652380Y-85610119D01*
X77652380Y-85705357D01*
X77604761Y-85848214D01*
X77509523Y-85943452D01*
X77414285Y-85991071D01*
X77223809Y-86038690D01*
X77080952Y-86038690D01*
X76890476Y-85991071D01*
X76795238Y-85943452D01*
X76700000Y-85848214D01*
X76652380Y-85705357D01*
X76652380Y-85610119D01*
X76700000Y-85467261D01*
X76747619Y-85419642D01*
%TO.C,U2*%
X126849523Y-95857619D02*
X126897142Y-95810000D01*
X126992380Y-95762380D01*
X127230476Y-95762380D01*
X127325714Y-95810000D01*
X127373333Y-95857619D01*
X127420952Y-95952857D01*
X127420952Y-96048095D01*
X127373333Y-96190952D01*
X126801904Y-96762380D01*
X127420952Y-96762380D01*
X127754285Y-95762380D02*
X128420952Y-95762380D01*
X127992380Y-96762380D01*
X129373333Y-96667142D02*
X129325714Y-96714761D01*
X129182857Y-96762380D01*
X129087619Y-96762380D01*
X128944761Y-96714761D01*
X128849523Y-96619523D01*
X128801904Y-96524285D01*
X128754285Y-96333809D01*
X128754285Y-96190952D01*
X128801904Y-96000476D01*
X128849523Y-95905238D01*
X128944761Y-95810000D01*
X129087619Y-95762380D01*
X129182857Y-95762380D01*
X129325714Y-95810000D01*
X129373333Y-95857619D01*
X130278095Y-95762380D02*
X129801904Y-95762380D01*
X129754285Y-96238571D01*
X129801904Y-96190952D01*
X129897142Y-96143333D01*
X130135238Y-96143333D01*
X130230476Y-96190952D01*
X130278095Y-96238571D01*
X130325714Y-96333809D01*
X130325714Y-96571904D01*
X130278095Y-96667142D01*
X130230476Y-96714761D01*
X130135238Y-96762380D01*
X129897142Y-96762380D01*
X129801904Y-96714761D01*
X129754285Y-96667142D01*
X131278095Y-96762380D02*
X130706666Y-96762380D01*
X130992380Y-96762380D02*
X130992380Y-95762380D01*
X130897142Y-95905238D01*
X130801904Y-96000476D01*
X130706666Y-96048095D01*
X131659047Y-95857619D02*
X131706666Y-95810000D01*
X131801904Y-95762380D01*
X132040000Y-95762380D01*
X132135238Y-95810000D01*
X132182857Y-95857619D01*
X132230476Y-95952857D01*
X132230476Y-96048095D01*
X132182857Y-96190952D01*
X131611428Y-96762380D01*
X132230476Y-96762380D01*
X128778095Y-76922380D02*
X128778095Y-77731904D01*
X128825714Y-77827142D01*
X128873333Y-77874761D01*
X128968571Y-77922380D01*
X129159047Y-77922380D01*
X129254285Y-77874761D01*
X129301904Y-77827142D01*
X129349523Y-77731904D01*
X129349523Y-76922380D01*
X129778095Y-77017619D02*
X129825714Y-76970000D01*
X129920952Y-76922380D01*
X130159047Y-76922380D01*
X130254285Y-76970000D01*
X130301904Y-77017619D01*
X130349523Y-77112857D01*
X130349523Y-77208095D01*
X130301904Y-77350952D01*
X129730476Y-77922380D01*
X130349523Y-77922380D01*
%TO.C,U4*%
X101369044Y-138726666D02*
X101845235Y-138726666D01*
X101273806Y-139012380D02*
X101607139Y-138012380D01*
X101940473Y-139012380D01*
X102178568Y-138012380D02*
X102797616Y-138012380D01*
X102464282Y-138393333D01*
X102607139Y-138393333D01*
X102702378Y-138440952D01*
X102749997Y-138488571D01*
X102797616Y-138583809D01*
X102797616Y-138821904D01*
X102749997Y-138917142D01*
X102702378Y-138964761D01*
X102607139Y-139012380D01*
X102321425Y-139012380D01*
X102226187Y-138964761D01*
X102178568Y-138917142D01*
X103416663Y-138012380D02*
X103511901Y-138012380D01*
X103607139Y-138060000D01*
X103654759Y-138107619D01*
X103702378Y-138202857D01*
X103749997Y-138393333D01*
X103749997Y-138631428D01*
X103702378Y-138821904D01*
X103654759Y-138917142D01*
X103607139Y-138964761D01*
X103511901Y-139012380D01*
X103416663Y-139012380D01*
X103321425Y-138964761D01*
X103273806Y-138917142D01*
X103226187Y-138821904D01*
X103178568Y-138631428D01*
X103178568Y-138393333D01*
X103226187Y-138202857D01*
X103273806Y-138107619D01*
X103321425Y-138060000D01*
X103416663Y-138012380D01*
X104130949Y-138107619D02*
X104178568Y-138060000D01*
X104273806Y-138012380D01*
X104511901Y-138012380D01*
X104607139Y-138060000D01*
X104654759Y-138107619D01*
X104702378Y-138202857D01*
X104702378Y-138298095D01*
X104654759Y-138440952D01*
X104083330Y-139012380D01*
X104702378Y-139012380D01*
X105130949Y-138631428D02*
X105892854Y-138631428D01*
X106321425Y-138726666D02*
X106797616Y-138726666D01*
X106226187Y-139012380D02*
X106559520Y-138012380D01*
X106892854Y-139012380D01*
X107226187Y-138345714D02*
X107226187Y-139012380D01*
X107226187Y-138440952D02*
X107273806Y-138393333D01*
X107369044Y-138345714D01*
X107511901Y-138345714D01*
X107607139Y-138393333D01*
X107654759Y-138488571D01*
X107654759Y-139012380D01*
X108559520Y-139012380D02*
X108559520Y-138488571D01*
X108511901Y-138393333D01*
X108416663Y-138345714D01*
X108226187Y-138345714D01*
X108130949Y-138393333D01*
X108559520Y-138964761D02*
X108464282Y-139012380D01*
X108226187Y-139012380D01*
X108130949Y-138964761D01*
X108083330Y-138869523D01*
X108083330Y-138774285D01*
X108130949Y-138679047D01*
X108226187Y-138631428D01*
X108464282Y-138631428D01*
X108559520Y-138583809D01*
X109178568Y-139012380D02*
X109083330Y-138964761D01*
X109035711Y-138869523D01*
X109035711Y-138012380D01*
X109702378Y-139012380D02*
X109607139Y-138964761D01*
X109559520Y-138917142D01*
X109511901Y-138821904D01*
X109511901Y-138536190D01*
X109559520Y-138440952D01*
X109607139Y-138393333D01*
X109702378Y-138345714D01*
X109845235Y-138345714D01*
X109940473Y-138393333D01*
X109988092Y-138440952D01*
X110035711Y-138536190D01*
X110035711Y-138821904D01*
X109988092Y-138917142D01*
X109940473Y-138964761D01*
X109845235Y-139012380D01*
X109702378Y-139012380D01*
X110892854Y-138345714D02*
X110892854Y-139155238D01*
X110845235Y-139250476D01*
X110797616Y-139298095D01*
X110702378Y-139345714D01*
X110559520Y-139345714D01*
X110464282Y-139298095D01*
X110892854Y-138964761D02*
X110797616Y-139012380D01*
X110607139Y-139012380D01*
X110511901Y-138964761D01*
X110464282Y-138917142D01*
X110416663Y-138821904D01*
X110416663Y-138536190D01*
X110464282Y-138440952D01*
X110511901Y-138393333D01*
X110607139Y-138345714D01*
X110797616Y-138345714D01*
X110892854Y-138393333D01*
X105392854Y-134412380D02*
X105392854Y-135221904D01*
X105440473Y-135317142D01*
X105488092Y-135364761D01*
X105583330Y-135412380D01*
X105773806Y-135412380D01*
X105869044Y-135364761D01*
X105916663Y-135317142D01*
X105964282Y-135221904D01*
X105964282Y-134412380D01*
X106869044Y-134745714D02*
X106869044Y-135412380D01*
X106630949Y-134364761D02*
X106392854Y-135079047D01*
X107011901Y-135079047D01*
%TO.C,R2*%
X105890473Y-146712380D02*
X105319044Y-146712380D01*
X105604759Y-146712380D02*
X105604759Y-145712380D01*
X105509520Y-145855238D01*
X105414282Y-145950476D01*
X105319044Y-145998095D01*
X106319044Y-146712380D02*
X106319044Y-145712380D01*
X106890473Y-146712380D02*
X106461901Y-146140952D01*
X106890473Y-145712380D02*
X106319044Y-146283809D01*
X105938092Y-144342380D02*
X105604759Y-143866190D01*
X105366663Y-144342380D02*
X105366663Y-143342380D01*
X105747616Y-143342380D01*
X105842854Y-143390000D01*
X105890473Y-143437619D01*
X105938092Y-143532857D01*
X105938092Y-143675714D01*
X105890473Y-143770952D01*
X105842854Y-143818571D01*
X105747616Y-143866190D01*
X105366663Y-143866190D01*
X106319044Y-143437619D02*
X106366663Y-143390000D01*
X106461901Y-143342380D01*
X106699997Y-143342380D01*
X106795235Y-143390000D01*
X106842854Y-143437619D01*
X106890473Y-143532857D01*
X106890473Y-143628095D01*
X106842854Y-143770952D01*
X106271425Y-144342380D01*
X106890473Y-144342380D01*
%TO.C,R1*%
X115788092Y-136462380D02*
X115216663Y-136462380D01*
X115502378Y-136462380D02*
X115502378Y-135462380D01*
X115407139Y-135605238D01*
X115311901Y-135700476D01*
X115216663Y-135748095D01*
X116740473Y-136462380D02*
X116169044Y-136462380D01*
X116454759Y-136462380D02*
X116454759Y-135462380D01*
X116359520Y-135605238D01*
X116264282Y-135700476D01*
X116169044Y-135748095D01*
X117359520Y-135462380D02*
X117454759Y-135462380D01*
X117549997Y-135510000D01*
X117597616Y-135557619D01*
X117645235Y-135652857D01*
X117692854Y-135843333D01*
X117692854Y-136081428D01*
X117645235Y-136271904D01*
X117597616Y-136367142D01*
X117549997Y-136414761D01*
X117454759Y-136462380D01*
X117359520Y-136462380D01*
X117264282Y-136414761D01*
X117216663Y-136367142D01*
X117169044Y-136271904D01*
X117121425Y-136081428D01*
X117121425Y-135843333D01*
X117169044Y-135652857D01*
X117216663Y-135557619D01*
X117264282Y-135510000D01*
X117359520Y-135462380D01*
X118121425Y-136462380D02*
X118121425Y-135462380D01*
X118692854Y-136462380D02*
X118264282Y-135890952D01*
X118692854Y-135462380D02*
X118121425Y-136033809D01*
X116788092Y-134092380D02*
X116454759Y-133616190D01*
X116216663Y-134092380D02*
X116216663Y-133092380D01*
X116597616Y-133092380D01*
X116692854Y-133140000D01*
X116740473Y-133187619D01*
X116788092Y-133282857D01*
X116788092Y-133425714D01*
X116740473Y-133520952D01*
X116692854Y-133568571D01*
X116597616Y-133616190D01*
X116216663Y-133616190D01*
X117740473Y-134092380D02*
X117169044Y-134092380D01*
X117454759Y-134092380D02*
X117454759Y-133092380D01*
X117359520Y-133235238D01*
X117264282Y-133330476D01*
X117169044Y-133378095D01*
%TO.C,D1*%
X103961901Y-142662380D02*
X103390473Y-142662380D01*
X103676187Y-142662380D02*
X103676187Y-141662380D01*
X103580949Y-141805238D01*
X103485711Y-141900476D01*
X103390473Y-141948095D01*
X104390473Y-142662380D02*
X104390473Y-141662380D01*
X104961901Y-142662380D01*
X104961901Y-141662380D01*
X105866663Y-141995714D02*
X105866663Y-142662380D01*
X105628568Y-141614761D02*
X105390473Y-142329047D01*
X106009520Y-142329047D01*
X106914282Y-142662380D02*
X106342854Y-142662380D01*
X106628568Y-142662380D02*
X106628568Y-141662380D01*
X106533330Y-141805238D01*
X106438092Y-141900476D01*
X106342854Y-141948095D01*
X107771425Y-141995714D02*
X107771425Y-142662380D01*
X107533330Y-141614761D02*
X107295235Y-142329047D01*
X107914282Y-142329047D01*
X108438092Y-142090952D02*
X108342854Y-142043333D01*
X108295235Y-141995714D01*
X108247616Y-141900476D01*
X108247616Y-141852857D01*
X108295235Y-141757619D01*
X108342854Y-141710000D01*
X108438092Y-141662380D01*
X108628568Y-141662380D01*
X108723806Y-141710000D01*
X108771425Y-141757619D01*
X108819044Y-141852857D01*
X108819044Y-141900476D01*
X108771425Y-141995714D01*
X108723806Y-142043333D01*
X108628568Y-142090952D01*
X108438092Y-142090952D01*
X108342854Y-142138571D01*
X108295235Y-142186190D01*
X108247616Y-142281428D01*
X108247616Y-142471904D01*
X108295235Y-142567142D01*
X108342854Y-142614761D01*
X108438092Y-142662380D01*
X108628568Y-142662380D01*
X108723806Y-142614761D01*
X108771425Y-142567142D01*
X108819044Y-142471904D01*
X108819044Y-142281428D01*
X108771425Y-142186190D01*
X108723806Y-142138571D01*
X108628568Y-142090952D01*
X102032854Y-138742380D02*
X102032854Y-137742380D01*
X102604282Y-138742380D02*
X102175711Y-138170952D01*
X102604282Y-137742380D02*
X102032854Y-138313809D01*
D12*
X105814282Y-140451904D02*
X105814282Y-139651904D01*
X106004759Y-139651904D01*
X106119044Y-139690000D01*
X106195235Y-139766190D01*
X106233330Y-139842380D01*
X106271425Y-139994761D01*
X106271425Y-140109047D01*
X106233330Y-140261428D01*
X106195235Y-140337619D01*
X106119044Y-140413809D01*
X106004759Y-140451904D01*
X105814282Y-140451904D01*
X107033330Y-140451904D02*
X106576187Y-140451904D01*
X106804759Y-140451904D02*
X106804759Y-139651904D01*
X106728568Y-139766190D01*
X106652378Y-139842380D01*
X106576187Y-139880476D01*
%TO.C,C5*%
D11*
X116987142Y-139562380D02*
X116415714Y-139562380D01*
X116701428Y-139562380D02*
X116701428Y-138562380D01*
X116606190Y-138705238D01*
X116510952Y-138800476D01*
X116415714Y-138848095D01*
X117606190Y-138562380D02*
X117701428Y-138562380D01*
X117796666Y-138610000D01*
X117844285Y-138657619D01*
X117891904Y-138752857D01*
X117939523Y-138943333D01*
X117939523Y-139181428D01*
X117891904Y-139371904D01*
X117844285Y-139467142D01*
X117796666Y-139514761D01*
X117701428Y-139562380D01*
X117606190Y-139562380D01*
X117510952Y-139514761D01*
X117463333Y-139467142D01*
X117415714Y-139371904D01*
X117368095Y-139181428D01*
X117368095Y-138943333D01*
X117415714Y-138752857D01*
X117463333Y-138657619D01*
X117510952Y-138610000D01*
X117606190Y-138562380D01*
X118368095Y-138895714D02*
X118368095Y-139895714D01*
X118844285Y-139419523D02*
X118891904Y-139514761D01*
X118987142Y-139562380D01*
X118368095Y-139419523D02*
X118415714Y-139514761D01*
X118510952Y-139562380D01*
X118701428Y-139562380D01*
X118796666Y-139514761D01*
X118844285Y-139419523D01*
X118844285Y-138895714D01*
X119749047Y-139038571D02*
X119415714Y-139038571D01*
X119415714Y-139562380D02*
X119415714Y-138562380D01*
X119891904Y-138562380D01*
X117963333Y-143867142D02*
X117915714Y-143914761D01*
X117772857Y-143962380D01*
X117677619Y-143962380D01*
X117534761Y-143914761D01*
X117439523Y-143819523D01*
X117391904Y-143724285D01*
X117344285Y-143533809D01*
X117344285Y-143390952D01*
X117391904Y-143200476D01*
X117439523Y-143105238D01*
X117534761Y-143010000D01*
X117677619Y-142962380D01*
X117772857Y-142962380D01*
X117915714Y-143010000D01*
X117963333Y-143057619D01*
X118868095Y-142962380D02*
X118391904Y-142962380D01*
X118344285Y-143438571D01*
X118391904Y-143390952D01*
X118487142Y-143343333D01*
X118725238Y-143343333D01*
X118820476Y-143390952D01*
X118868095Y-143438571D01*
X118915714Y-143533809D01*
X118915714Y-143771904D01*
X118868095Y-143867142D01*
X118820476Y-143914761D01*
X118725238Y-143962380D01*
X118487142Y-143962380D01*
X118391904Y-143914761D01*
X118344285Y-143867142D01*
%TO.C,U3*%
X143058571Y-100842380D02*
X142868095Y-100842380D01*
X142772857Y-100890000D01*
X142725238Y-100937619D01*
X142630000Y-101080476D01*
X142582380Y-101270952D01*
X142582380Y-101651904D01*
X142630000Y-101747142D01*
X142677619Y-101794761D01*
X142772857Y-101842380D01*
X142963333Y-101842380D01*
X143058571Y-101794761D01*
X143106190Y-101747142D01*
X143153809Y-101651904D01*
X143153809Y-101413809D01*
X143106190Y-101318571D01*
X143058571Y-101270952D01*
X142963333Y-101223333D01*
X142772857Y-101223333D01*
X142677619Y-101270952D01*
X142630000Y-101318571D01*
X142582380Y-101413809D01*
X143534761Y-100937619D02*
X143582380Y-100890000D01*
X143677619Y-100842380D01*
X143915714Y-100842380D01*
X144010952Y-100890000D01*
X144058571Y-100937619D01*
X144106190Y-101032857D01*
X144106190Y-101128095D01*
X144058571Y-101270952D01*
X143487142Y-101842380D01*
X144106190Y-101842380D01*
X144677619Y-101270952D02*
X144582380Y-101223333D01*
X144534761Y-101175714D01*
X144487142Y-101080476D01*
X144487142Y-101032857D01*
X144534761Y-100937619D01*
X144582380Y-100890000D01*
X144677619Y-100842380D01*
X144868095Y-100842380D01*
X144963333Y-100890000D01*
X145010952Y-100937619D01*
X145058571Y-101032857D01*
X145058571Y-101080476D01*
X145010952Y-101175714D01*
X144963333Y-101223333D01*
X144868095Y-101270952D01*
X144677619Y-101270952D01*
X144582380Y-101318571D01*
X144534761Y-101366190D01*
X144487142Y-101461428D01*
X144487142Y-101651904D01*
X144534761Y-101747142D01*
X144582380Y-101794761D01*
X144677619Y-101842380D01*
X144868095Y-101842380D01*
X144963333Y-101794761D01*
X145010952Y-101747142D01*
X145058571Y-101651904D01*
X145058571Y-101461428D01*
X145010952Y-101366190D01*
X144963333Y-101318571D01*
X144868095Y-101270952D01*
X146010952Y-101842380D02*
X145439523Y-101842380D01*
X145725238Y-101842380D02*
X145725238Y-100842380D01*
X145630000Y-100985238D01*
X145534761Y-101080476D01*
X145439523Y-101128095D01*
X146391904Y-100937619D02*
X146439523Y-100890000D01*
X146534761Y-100842380D01*
X146772857Y-100842380D01*
X146868095Y-100890000D01*
X146915714Y-100937619D01*
X146963333Y-101032857D01*
X146963333Y-101128095D01*
X146915714Y-101270952D01*
X146344285Y-101842380D01*
X146963333Y-101842380D01*
X147534761Y-101270952D02*
X147439523Y-101223333D01*
X147391904Y-101175714D01*
X147344285Y-101080476D01*
X147344285Y-101032857D01*
X147391904Y-100937619D01*
X147439523Y-100890000D01*
X147534761Y-100842380D01*
X147725238Y-100842380D01*
X147820476Y-100890000D01*
X147868095Y-100937619D01*
X147915714Y-101032857D01*
X147915714Y-101080476D01*
X147868095Y-101175714D01*
X147820476Y-101223333D01*
X147725238Y-101270952D01*
X147534761Y-101270952D01*
X147439523Y-101318571D01*
X147391904Y-101366190D01*
X147344285Y-101461428D01*
X147344285Y-101651904D01*
X147391904Y-101747142D01*
X147439523Y-101794761D01*
X147534761Y-101842380D01*
X147725238Y-101842380D01*
X147820476Y-101794761D01*
X147868095Y-101747142D01*
X147915714Y-101651904D01*
X147915714Y-101461428D01*
X147868095Y-101366190D01*
X147820476Y-101318571D01*
X147725238Y-101270952D01*
X148106190Y-101937619D02*
X148868095Y-101937619D01*
X149106190Y-101842380D02*
X149106190Y-100842380D01*
X149344285Y-100842380D01*
X149487142Y-100890000D01*
X149582380Y-100985238D01*
X149630000Y-101080476D01*
X149677619Y-101270952D01*
X149677619Y-101413809D01*
X149630000Y-101604285D01*
X149582380Y-101699523D01*
X149487142Y-101794761D01*
X149344285Y-101842380D01*
X149106190Y-101842380D01*
X150106190Y-101842380D02*
X150106190Y-100842380D01*
X150582380Y-101842380D02*
X150582380Y-100842380D01*
X150963333Y-100842380D01*
X151058571Y-100890000D01*
X151106190Y-100937619D01*
X151153809Y-101032857D01*
X151153809Y-101175714D01*
X151106190Y-101270952D01*
X151058571Y-101318571D01*
X150963333Y-101366190D01*
X150582380Y-101366190D01*
X151487142Y-100842380D02*
X152106190Y-100842380D01*
X151772857Y-101223333D01*
X151915714Y-101223333D01*
X152010952Y-101270952D01*
X152058571Y-101318571D01*
X152106190Y-101413809D01*
X152106190Y-101651904D01*
X152058571Y-101747142D01*
X152010952Y-101794761D01*
X151915714Y-101842380D01*
X151630000Y-101842380D01*
X151534761Y-101794761D01*
X151487142Y-101747142D01*
X152487142Y-100937619D02*
X152534761Y-100890000D01*
X152630000Y-100842380D01*
X152868095Y-100842380D01*
X152963333Y-100890000D01*
X153010952Y-100937619D01*
X153058571Y-101032857D01*
X153058571Y-101128095D01*
X153010952Y-101270952D01*
X152439523Y-101842380D01*
X153058571Y-101842380D01*
X153249047Y-101937619D02*
X154010952Y-101937619D01*
X154201428Y-101794761D02*
X154344285Y-101842380D01*
X154582380Y-101842380D01*
X154677619Y-101794761D01*
X154725238Y-101747142D01*
X154772857Y-101651904D01*
X154772857Y-101556666D01*
X154725238Y-101461428D01*
X154677619Y-101413809D01*
X154582380Y-101366190D01*
X154391904Y-101318571D01*
X154296666Y-101270952D01*
X154249047Y-101223333D01*
X154201428Y-101128095D01*
X154201428Y-101032857D01*
X154249047Y-100937619D01*
X154296666Y-100890000D01*
X154391904Y-100842380D01*
X154630000Y-100842380D01*
X154772857Y-100890000D01*
X155153809Y-101794761D02*
X155296666Y-101842380D01*
X155534761Y-101842380D01*
X155630000Y-101794761D01*
X155677619Y-101747142D01*
X155725238Y-101651904D01*
X155725238Y-101556666D01*
X155677619Y-101461428D01*
X155630000Y-101413809D01*
X155534761Y-101366190D01*
X155344285Y-101318571D01*
X155249047Y-101270952D01*
X155201428Y-101223333D01*
X155153809Y-101128095D01*
X155153809Y-101032857D01*
X155201428Y-100937619D01*
X155249047Y-100890000D01*
X155344285Y-100842380D01*
X155582380Y-100842380D01*
X155725238Y-100890000D01*
X156344285Y-100842380D02*
X156534761Y-100842380D01*
X156630000Y-100890000D01*
X156725238Y-100985238D01*
X156772857Y-101175714D01*
X156772857Y-101509047D01*
X156725238Y-101699523D01*
X156630000Y-101794761D01*
X156534761Y-101842380D01*
X156344285Y-101842380D01*
X156249047Y-101794761D01*
X156153809Y-101699523D01*
X156106190Y-101509047D01*
X156106190Y-101175714D01*
X156153809Y-100985238D01*
X156249047Y-100890000D01*
X156344285Y-100842380D01*
X157201428Y-101842380D02*
X157201428Y-100842380D01*
X157582380Y-100842380D01*
X157677619Y-100890000D01*
X157725238Y-100937619D01*
X157772857Y-101032857D01*
X157772857Y-101175714D01*
X157725238Y-101270952D01*
X157677619Y-101318571D01*
X157582380Y-101366190D01*
X157201428Y-101366190D01*
X158106190Y-100842380D02*
X158725238Y-100842380D01*
X158391904Y-101223333D01*
X158534761Y-101223333D01*
X158630000Y-101270952D01*
X158677619Y-101318571D01*
X158725238Y-101413809D01*
X158725238Y-101651904D01*
X158677619Y-101747142D01*
X158630000Y-101794761D01*
X158534761Y-101842380D01*
X158249047Y-101842380D01*
X158153809Y-101794761D01*
X158106190Y-101747142D01*
X159106190Y-100937619D02*
X159153809Y-100890000D01*
X159249047Y-100842380D01*
X159487142Y-100842380D01*
X159582380Y-100890000D01*
X159630000Y-100937619D01*
X159677619Y-101032857D01*
X159677619Y-101128095D01*
X159630000Y-101270952D01*
X159058571Y-101842380D01*
X159677619Y-101842380D01*
X150368095Y-79462380D02*
X150368095Y-80271904D01*
X150415714Y-80367142D01*
X150463333Y-80414761D01*
X150558571Y-80462380D01*
X150749047Y-80462380D01*
X150844285Y-80414761D01*
X150891904Y-80367142D01*
X150939523Y-80271904D01*
X150939523Y-79462380D01*
X151320476Y-79462380D02*
X151939523Y-79462380D01*
X151606190Y-79843333D01*
X151749047Y-79843333D01*
X151844285Y-79890952D01*
X151891904Y-79938571D01*
X151939523Y-80033809D01*
X151939523Y-80271904D01*
X151891904Y-80367142D01*
X151844285Y-80414761D01*
X151749047Y-80462380D01*
X151463333Y-80462380D01*
X151368095Y-80414761D01*
X151320476Y-80367142D01*
%TO.C,U1*%
X125841428Y-138990000D02*
X125746190Y-138942380D01*
X125603333Y-138942380D01*
X125460476Y-138990000D01*
X125365238Y-139085238D01*
X125317619Y-139180476D01*
X125270000Y-139370952D01*
X125270000Y-139513809D01*
X125317619Y-139704285D01*
X125365238Y-139799523D01*
X125460476Y-139894761D01*
X125603333Y-139942380D01*
X125698571Y-139942380D01*
X125841428Y-139894761D01*
X125889047Y-139847142D01*
X125889047Y-139513809D01*
X125698571Y-139513809D01*
X126270000Y-139656666D02*
X126746190Y-139656666D01*
X126174761Y-139942380D02*
X126508095Y-138942380D01*
X126841428Y-139942380D01*
X127650952Y-139942380D02*
X127174761Y-139942380D01*
X127174761Y-138942380D01*
X128508095Y-139942380D02*
X127936666Y-139942380D01*
X128222380Y-139942380D02*
X128222380Y-138942380D01*
X128127142Y-139085238D01*
X128031904Y-139180476D01*
X127936666Y-139228095D01*
X129365238Y-138942380D02*
X129174761Y-138942380D01*
X129079523Y-138990000D01*
X129031904Y-139037619D01*
X128936666Y-139180476D01*
X128889047Y-139370952D01*
X128889047Y-139751904D01*
X128936666Y-139847142D01*
X128984285Y-139894761D01*
X129079523Y-139942380D01*
X129270000Y-139942380D01*
X129365238Y-139894761D01*
X129412857Y-139847142D01*
X129460476Y-139751904D01*
X129460476Y-139513809D01*
X129412857Y-139418571D01*
X129365238Y-139370952D01*
X129270000Y-139323333D01*
X129079523Y-139323333D01*
X128984285Y-139370952D01*
X128936666Y-139418571D01*
X128889047Y-139513809D01*
X129746190Y-138942380D02*
X130079523Y-139942380D01*
X130412857Y-138942380D01*
X130889047Y-139370952D02*
X130793809Y-139323333D01*
X130746190Y-139275714D01*
X130698571Y-139180476D01*
X130698571Y-139132857D01*
X130746190Y-139037619D01*
X130793809Y-138990000D01*
X130889047Y-138942380D01*
X131079523Y-138942380D01*
X131174761Y-138990000D01*
X131222380Y-139037619D01*
X131270000Y-139132857D01*
X131270000Y-139180476D01*
X131222380Y-139275714D01*
X131174761Y-139323333D01*
X131079523Y-139370952D01*
X130889047Y-139370952D01*
X130793809Y-139418571D01*
X130746190Y-139466190D01*
X130698571Y-139561428D01*
X130698571Y-139751904D01*
X130746190Y-139847142D01*
X130793809Y-139894761D01*
X130889047Y-139942380D01*
X131079523Y-139942380D01*
X131174761Y-139894761D01*
X131222380Y-139847142D01*
X131270000Y-139751904D01*
X131270000Y-139561428D01*
X131222380Y-139466190D01*
X131174761Y-139418571D01*
X131079523Y-139370952D01*
X127508095Y-125182380D02*
X127508095Y-125991904D01*
X127555714Y-126087142D01*
X127603333Y-126134761D01*
X127698571Y-126182380D01*
X127889047Y-126182380D01*
X127984285Y-126134761D01*
X128031904Y-126087142D01*
X128079523Y-125991904D01*
X128079523Y-125182380D01*
X129079523Y-126182380D02*
X128508095Y-126182380D01*
X128793809Y-126182380D02*
X128793809Y-125182380D01*
X128698571Y-125325238D01*
X128603333Y-125420476D01*
X128508095Y-125468095D01*
%TO.C,SW1*%
X155805714Y-122894761D02*
X155948571Y-122942380D01*
X156186666Y-122942380D01*
X156281904Y-122894761D01*
X156329523Y-122847142D01*
X156377142Y-122751904D01*
X156377142Y-122656666D01*
X156329523Y-122561428D01*
X156281904Y-122513809D01*
X156186666Y-122466190D01*
X155996190Y-122418571D01*
X155900952Y-122370952D01*
X155853333Y-122323333D01*
X155805714Y-122228095D01*
X155805714Y-122132857D01*
X155853333Y-122037619D01*
X155900952Y-121990000D01*
X155996190Y-121942380D01*
X156234285Y-121942380D01*
X156377142Y-121990000D01*
X156710476Y-121942380D02*
X156948571Y-122942380D01*
X157139047Y-122228095D01*
X157329523Y-122942380D01*
X157567619Y-121942380D01*
X157710476Y-123037619D02*
X158472380Y-123037619D01*
X158710476Y-122942380D02*
X158710476Y-121942380D01*
X158948571Y-121942380D01*
X159091428Y-121990000D01*
X159186666Y-122085238D01*
X159234285Y-122180476D01*
X159281904Y-122370952D01*
X159281904Y-122513809D01*
X159234285Y-122704285D01*
X159186666Y-122799523D01*
X159091428Y-122894761D01*
X158948571Y-122942380D01*
X158710476Y-122942380D01*
X159710476Y-122942380D02*
X159710476Y-121942380D01*
X160186666Y-122942380D02*
X160186666Y-121942380D01*
X160567619Y-121942380D01*
X160662857Y-121990000D01*
X160710476Y-122037619D01*
X160758095Y-122132857D01*
X160758095Y-122275714D01*
X160710476Y-122370952D01*
X160662857Y-122418571D01*
X160567619Y-122466190D01*
X160186666Y-122466190D01*
X160948571Y-123037619D02*
X161710476Y-123037619D01*
X161853333Y-122942380D02*
X162377142Y-122275714D01*
X161853333Y-122275714D02*
X162377142Y-122942380D01*
X162948571Y-121942380D02*
X163043809Y-121942380D01*
X163139047Y-121990000D01*
X163186666Y-122037619D01*
X163234285Y-122132857D01*
X163281904Y-122323333D01*
X163281904Y-122561428D01*
X163234285Y-122751904D01*
X163186666Y-122847142D01*
X163139047Y-122894761D01*
X163043809Y-122942380D01*
X162948571Y-122942380D01*
X162853333Y-122894761D01*
X162805714Y-122847142D01*
X162758095Y-122751904D01*
X162710476Y-122561428D01*
X162710476Y-122323333D01*
X162758095Y-122132857D01*
X162805714Y-122037619D01*
X162853333Y-121990000D01*
X162948571Y-121942380D01*
X164139047Y-122275714D02*
X164139047Y-122942380D01*
X163900952Y-121894761D02*
X163662857Y-122609047D01*
X164281904Y-122609047D01*
D12*
X158953333Y-115893809D02*
X159067619Y-115931904D01*
X159258095Y-115931904D01*
X159334285Y-115893809D01*
X159372380Y-115855714D01*
X159410476Y-115779523D01*
X159410476Y-115703333D01*
X159372380Y-115627142D01*
X159334285Y-115589047D01*
X159258095Y-115550952D01*
X159105714Y-115512857D01*
X159029523Y-115474761D01*
X158991428Y-115436666D01*
X158953333Y-115360476D01*
X158953333Y-115284285D01*
X158991428Y-115208095D01*
X159029523Y-115170000D01*
X159105714Y-115131904D01*
X159296190Y-115131904D01*
X159410476Y-115170000D01*
X159677142Y-115131904D02*
X159867619Y-115931904D01*
X160020000Y-115360476D01*
X160172380Y-115931904D01*
X160362857Y-115131904D01*
X161086666Y-115931904D02*
X160629523Y-115931904D01*
X160858095Y-115931904D02*
X160858095Y-115131904D01*
X160781904Y-115246190D01*
X160705714Y-115322380D01*
X160629523Y-115360476D01*
%TO.C,RN1*%
D11*
X166295714Y-116355714D02*
X166962380Y-116355714D01*
X165914761Y-116593809D02*
X166629047Y-116831904D01*
X166629047Y-116212857D01*
X166962380Y-115831904D02*
X165962380Y-115831904D01*
X166962380Y-115260476D02*
X166390952Y-115689047D01*
X165962380Y-115260476D02*
X166533809Y-115831904D01*
X165962380Y-114927142D02*
X165962380Y-114260476D01*
X166962380Y-114689047D01*
X169362380Y-114990476D02*
X168886190Y-115323809D01*
X169362380Y-115561904D02*
X168362380Y-115561904D01*
X168362380Y-115180952D01*
X168410000Y-115085714D01*
X168457619Y-115038095D01*
X168552857Y-114990476D01*
X168695714Y-114990476D01*
X168790952Y-115038095D01*
X168838571Y-115085714D01*
X168886190Y-115180952D01*
X168886190Y-115561904D01*
X169362380Y-114561904D02*
X168362380Y-114561904D01*
X169362380Y-113990476D01*
X168362380Y-113990476D01*
X169362380Y-112990476D02*
X169362380Y-113561904D01*
X169362380Y-113276190D02*
X168362380Y-113276190D01*
X168505238Y-113371428D01*
X168600476Y-113466666D01*
X168648095Y-113561904D01*
%TO.C,C4*%
X157282380Y-103442380D02*
X156710952Y-103442380D01*
X156996666Y-103442380D02*
X156996666Y-102442380D01*
X156901428Y-102585238D01*
X156806190Y-102680476D01*
X156710952Y-102728095D01*
X157901428Y-102442380D02*
X157996666Y-102442380D01*
X158091904Y-102490000D01*
X158139523Y-102537619D01*
X158187142Y-102632857D01*
X158234761Y-102823333D01*
X158234761Y-103061428D01*
X158187142Y-103251904D01*
X158139523Y-103347142D01*
X158091904Y-103394761D01*
X157996666Y-103442380D01*
X157901428Y-103442380D01*
X157806190Y-103394761D01*
X157758571Y-103347142D01*
X157710952Y-103251904D01*
X157663333Y-103061428D01*
X157663333Y-102823333D01*
X157710952Y-102632857D01*
X157758571Y-102537619D01*
X157806190Y-102490000D01*
X157901428Y-102442380D01*
X158853809Y-102442380D02*
X158949047Y-102442380D01*
X159044285Y-102490000D01*
X159091904Y-102537619D01*
X159139523Y-102632857D01*
X159187142Y-102823333D01*
X159187142Y-103061428D01*
X159139523Y-103251904D01*
X159091904Y-103347142D01*
X159044285Y-103394761D01*
X158949047Y-103442380D01*
X158853809Y-103442380D01*
X158758571Y-103394761D01*
X158710952Y-103347142D01*
X158663333Y-103251904D01*
X158615714Y-103061428D01*
X158615714Y-102823333D01*
X158663333Y-102632857D01*
X158710952Y-102537619D01*
X158758571Y-102490000D01*
X158853809Y-102442380D01*
X159615714Y-102775714D02*
X159615714Y-103442380D01*
X159615714Y-102870952D02*
X159663333Y-102823333D01*
X159758571Y-102775714D01*
X159901428Y-102775714D01*
X159996666Y-102823333D01*
X160044285Y-102918571D01*
X160044285Y-103442380D01*
X160853809Y-102918571D02*
X160520476Y-102918571D01*
X160520476Y-103442380D02*
X160520476Y-102442380D01*
X160996666Y-102442380D01*
D13*
X158703333Y-105681428D02*
X158667142Y-105717619D01*
X158558571Y-105753809D01*
X158486190Y-105753809D01*
X158377619Y-105717619D01*
X158305238Y-105645238D01*
X158269047Y-105572857D01*
X158232857Y-105428095D01*
X158232857Y-105319523D01*
X158269047Y-105174761D01*
X158305238Y-105102380D01*
X158377619Y-105030000D01*
X158486190Y-104993809D01*
X158558571Y-104993809D01*
X158667142Y-105030000D01*
X158703333Y-105066190D01*
X159354761Y-105247142D02*
X159354761Y-105753809D01*
X159173809Y-104957619D02*
X158992857Y-105500476D01*
X159463333Y-105500476D01*
%TO.C,C3*%
D11*
X130612380Y-142812380D02*
X130040952Y-142812380D01*
X130326666Y-142812380D02*
X130326666Y-141812380D01*
X130231428Y-141955238D01*
X130136190Y-142050476D01*
X130040952Y-142098095D01*
X131231428Y-141812380D02*
X131326666Y-141812380D01*
X131421904Y-141860000D01*
X131469523Y-141907619D01*
X131517142Y-142002857D01*
X131564761Y-142193333D01*
X131564761Y-142431428D01*
X131517142Y-142621904D01*
X131469523Y-142717142D01*
X131421904Y-142764761D01*
X131326666Y-142812380D01*
X131231428Y-142812380D01*
X131136190Y-142764761D01*
X131088571Y-142717142D01*
X131040952Y-142621904D01*
X130993333Y-142431428D01*
X130993333Y-142193333D01*
X131040952Y-142002857D01*
X131088571Y-141907619D01*
X131136190Y-141860000D01*
X131231428Y-141812380D01*
X132183809Y-141812380D02*
X132279047Y-141812380D01*
X132374285Y-141860000D01*
X132421904Y-141907619D01*
X132469523Y-142002857D01*
X132517142Y-142193333D01*
X132517142Y-142431428D01*
X132469523Y-142621904D01*
X132421904Y-142717142D01*
X132374285Y-142764761D01*
X132279047Y-142812380D01*
X132183809Y-142812380D01*
X132088571Y-142764761D01*
X132040952Y-142717142D01*
X131993333Y-142621904D01*
X131945714Y-142431428D01*
X131945714Y-142193333D01*
X131993333Y-142002857D01*
X132040952Y-141907619D01*
X132088571Y-141860000D01*
X132183809Y-141812380D01*
X132945714Y-142145714D02*
X132945714Y-142812380D01*
X132945714Y-142240952D02*
X132993333Y-142193333D01*
X133088571Y-142145714D01*
X133231428Y-142145714D01*
X133326666Y-142193333D01*
X133374285Y-142288571D01*
X133374285Y-142812380D01*
X134183809Y-142288571D02*
X133850476Y-142288571D01*
X133850476Y-142812380D02*
X133850476Y-141812380D01*
X134326666Y-141812380D01*
D13*
X132033333Y-145051428D02*
X131997142Y-145087619D01*
X131888571Y-145123809D01*
X131816190Y-145123809D01*
X131707619Y-145087619D01*
X131635238Y-145015238D01*
X131599047Y-144942857D01*
X131562857Y-144798095D01*
X131562857Y-144689523D01*
X131599047Y-144544761D01*
X131635238Y-144472380D01*
X131707619Y-144400000D01*
X131816190Y-144363809D01*
X131888571Y-144363809D01*
X131997142Y-144400000D01*
X132033333Y-144436190D01*
X132286666Y-144363809D02*
X132757142Y-144363809D01*
X132503809Y-144653333D01*
X132612380Y-144653333D01*
X132684761Y-144689523D01*
X132720952Y-144725714D01*
X132757142Y-144798095D01*
X132757142Y-144979047D01*
X132720952Y-145051428D01*
X132684761Y-145087619D01*
X132612380Y-145123809D01*
X132395238Y-145123809D01*
X132322857Y-145087619D01*
X132286666Y-145051428D01*
%TO.C,C2*%
D11*
X139342380Y-58752380D02*
X138770952Y-58752380D01*
X139056666Y-58752380D02*
X139056666Y-57752380D01*
X138961428Y-57895238D01*
X138866190Y-57990476D01*
X138770952Y-58038095D01*
X139961428Y-57752380D02*
X140056666Y-57752380D01*
X140151904Y-57800000D01*
X140199523Y-57847619D01*
X140247142Y-57942857D01*
X140294761Y-58133333D01*
X140294761Y-58371428D01*
X140247142Y-58561904D01*
X140199523Y-58657142D01*
X140151904Y-58704761D01*
X140056666Y-58752380D01*
X139961428Y-58752380D01*
X139866190Y-58704761D01*
X139818571Y-58657142D01*
X139770952Y-58561904D01*
X139723333Y-58371428D01*
X139723333Y-58133333D01*
X139770952Y-57942857D01*
X139818571Y-57847619D01*
X139866190Y-57800000D01*
X139961428Y-57752380D01*
X140913809Y-57752380D02*
X141009047Y-57752380D01*
X141104285Y-57800000D01*
X141151904Y-57847619D01*
X141199523Y-57942857D01*
X141247142Y-58133333D01*
X141247142Y-58371428D01*
X141199523Y-58561904D01*
X141151904Y-58657142D01*
X141104285Y-58704761D01*
X141009047Y-58752380D01*
X140913809Y-58752380D01*
X140818571Y-58704761D01*
X140770952Y-58657142D01*
X140723333Y-58561904D01*
X140675714Y-58371428D01*
X140675714Y-58133333D01*
X140723333Y-57942857D01*
X140770952Y-57847619D01*
X140818571Y-57800000D01*
X140913809Y-57752380D01*
X141675714Y-58085714D02*
X141675714Y-58752380D01*
X141675714Y-58180952D02*
X141723333Y-58133333D01*
X141818571Y-58085714D01*
X141961428Y-58085714D01*
X142056666Y-58133333D01*
X142104285Y-58228571D01*
X142104285Y-58752380D01*
X142913809Y-58228571D02*
X142580476Y-58228571D01*
X142580476Y-58752380D02*
X142580476Y-57752380D01*
X143056666Y-57752380D01*
D13*
X136113333Y-55211428D02*
X136077142Y-55247619D01*
X135968571Y-55283809D01*
X135896190Y-55283809D01*
X135787619Y-55247619D01*
X135715238Y-55175238D01*
X135679047Y-55102857D01*
X135642857Y-54958095D01*
X135642857Y-54849523D01*
X135679047Y-54704761D01*
X135715238Y-54632380D01*
X135787619Y-54560000D01*
X135896190Y-54523809D01*
X135968571Y-54523809D01*
X136077142Y-54560000D01*
X136113333Y-54596190D01*
X136402857Y-54596190D02*
X136439047Y-54560000D01*
X136511428Y-54523809D01*
X136692380Y-54523809D01*
X136764761Y-54560000D01*
X136800952Y-54596190D01*
X136837142Y-54668571D01*
X136837142Y-54740952D01*
X136800952Y-54849523D01*
X136366666Y-55283809D01*
X136837142Y-55283809D01*
%TO.C,C1*%
D11*
X124792380Y-105767619D02*
X124792380Y-106339047D01*
X124792380Y-106053333D02*
X123792380Y-106053333D01*
X123935238Y-106148571D01*
X124030476Y-106243809D01*
X124078095Y-106339047D01*
X123792380Y-105148571D02*
X123792380Y-105053333D01*
X123840000Y-104958095D01*
X123887619Y-104910476D01*
X123982857Y-104862857D01*
X124173333Y-104815238D01*
X124411428Y-104815238D01*
X124601904Y-104862857D01*
X124697142Y-104910476D01*
X124744761Y-104958095D01*
X124792380Y-105053333D01*
X124792380Y-105148571D01*
X124744761Y-105243809D01*
X124697142Y-105291428D01*
X124601904Y-105339047D01*
X124411428Y-105386666D01*
X124173333Y-105386666D01*
X123982857Y-105339047D01*
X123887619Y-105291428D01*
X123840000Y-105243809D01*
X123792380Y-105148571D01*
X123792380Y-104196190D02*
X123792380Y-104100952D01*
X123840000Y-104005714D01*
X123887619Y-103958095D01*
X123982857Y-103910476D01*
X124173333Y-103862857D01*
X124411428Y-103862857D01*
X124601904Y-103910476D01*
X124697142Y-103958095D01*
X124744761Y-104005714D01*
X124792380Y-104100952D01*
X124792380Y-104196190D01*
X124744761Y-104291428D01*
X124697142Y-104339047D01*
X124601904Y-104386666D01*
X124411428Y-104434285D01*
X124173333Y-104434285D01*
X123982857Y-104386666D01*
X123887619Y-104339047D01*
X123840000Y-104291428D01*
X123792380Y-104196190D01*
X124125714Y-103434285D02*
X124792380Y-103434285D01*
X124220952Y-103434285D02*
X124173333Y-103386666D01*
X124125714Y-103291428D01*
X124125714Y-103148571D01*
X124173333Y-103053333D01*
X124268571Y-103005714D01*
X124792380Y-103005714D01*
X124268571Y-102196190D02*
X124268571Y-102529523D01*
X124792380Y-102529523D02*
X123792380Y-102529523D01*
X123792380Y-102053333D01*
D13*
X122191428Y-104346666D02*
X122227619Y-104382857D01*
X122263809Y-104491428D01*
X122263809Y-104563809D01*
X122227619Y-104672380D01*
X122155238Y-104744761D01*
X122082857Y-104780952D01*
X121938095Y-104817142D01*
X121829523Y-104817142D01*
X121684761Y-104780952D01*
X121612380Y-104744761D01*
X121540000Y-104672380D01*
X121503809Y-104563809D01*
X121503809Y-104491428D01*
X121540000Y-104382857D01*
X121576190Y-104346666D01*
X122263809Y-103622857D02*
X122263809Y-104057142D01*
X122263809Y-103840000D02*
X121503809Y-103840000D01*
X121612380Y-103912380D01*
X121684761Y-103984761D01*
X121720952Y-104057142D01*
%TD*%
M02*
