%TF.GenerationSoftware,KiCad,Pcbnew,(5.1.10)-1*%
%TF.CreationDate,2022-01-02T16:59:21+01:00*%
%TF.ProjectId,BasicROM,42617369-6352-44f4-9d2e-6b696361645f,rev?*%
%TF.SameCoordinates,Original*%
%TF.FileFunction,OtherDrawing,Comment*%
%FSLAX46Y46*%
G04 Gerber Fmt 4.6, Leading zero omitted, Abs format (unit mm)*
G04 Created by KiCad (PCBNEW (5.1.10)-1) date 2022-01-02 16:59:21*
%MOMM*%
%LPD*%
G01*
G04 APERTURE LIST*
%ADD10C,0.150000*%
G04 APERTURE END LIST*
%TO.C,X1*%
D10*
X73121428Y-108590833D02*
X73173809Y-108433690D01*
X73226190Y-108381309D01*
X73330952Y-108328928D01*
X73488095Y-108328928D01*
X73592857Y-108381309D01*
X73645238Y-108433690D01*
X73697619Y-108538452D01*
X73697619Y-108957500D01*
X72597619Y-108957500D01*
X72597619Y-108590833D01*
X72650000Y-108486071D01*
X72702380Y-108433690D01*
X72807142Y-108381309D01*
X72911904Y-108381309D01*
X73016666Y-108433690D01*
X73069047Y-108486071D01*
X73121428Y-108590833D01*
X73121428Y-108957500D01*
X73697619Y-107700357D02*
X73645238Y-107805119D01*
X73592857Y-107857500D01*
X73488095Y-107909880D01*
X73173809Y-107909880D01*
X73069047Y-107857500D01*
X73016666Y-107805119D01*
X72964285Y-107700357D01*
X72964285Y-107543214D01*
X73016666Y-107438452D01*
X73069047Y-107386071D01*
X73173809Y-107333690D01*
X73488095Y-107333690D01*
X73592857Y-107386071D01*
X73645238Y-107438452D01*
X73697619Y-107543214D01*
X73697619Y-107700357D01*
X73697619Y-106862261D02*
X72597619Y-106862261D01*
X73697619Y-106390833D02*
X73121428Y-106390833D01*
X73016666Y-106443214D01*
X72964285Y-106547976D01*
X72964285Y-106705119D01*
X73016666Y-106809880D01*
X73069047Y-106862261D01*
X73697619Y-105867023D02*
X72964285Y-105867023D01*
X73173809Y-105867023D02*
X73069047Y-105814642D01*
X73016666Y-105762261D01*
X72964285Y-105657500D01*
X72964285Y-105552738D01*
X72964285Y-104714642D02*
X73697619Y-104714642D01*
X72964285Y-105186071D02*
X73540476Y-105186071D01*
X73645238Y-105133690D01*
X73697619Y-105028928D01*
X73697619Y-104871785D01*
X73645238Y-104767023D01*
X73592857Y-104714642D01*
X72964285Y-104190833D02*
X73697619Y-104190833D01*
X73069047Y-104190833D02*
X73016666Y-104138452D01*
X72964285Y-104033690D01*
X72964285Y-103876547D01*
X73016666Y-103771785D01*
X73121428Y-103719404D01*
X73697619Y-103719404D01*
X72964285Y-102724166D02*
X73854761Y-102724166D01*
X73959523Y-102776547D01*
X74011904Y-102828928D01*
X74064285Y-102933690D01*
X74064285Y-103090833D01*
X74011904Y-103195595D01*
X73645238Y-102724166D02*
X73697619Y-102828928D01*
X73697619Y-103038452D01*
X73645238Y-103143214D01*
X73592857Y-103195595D01*
X73488095Y-103247976D01*
X73173809Y-103247976D01*
X73069047Y-103195595D01*
X73016666Y-103143214D01*
X72964285Y-103038452D01*
X72964285Y-102828928D01*
X73016666Y-102724166D01*
X73645238Y-101781309D02*
X73697619Y-101886071D01*
X73697619Y-102095595D01*
X73645238Y-102200357D01*
X73540476Y-102252738D01*
X73121428Y-102252738D01*
X73016666Y-102200357D01*
X72964285Y-102095595D01*
X72964285Y-101886071D01*
X73016666Y-101781309D01*
X73121428Y-101728928D01*
X73226190Y-101728928D01*
X73330952Y-102252738D01*
X72964285Y-101257500D02*
X73697619Y-101257500D01*
X73069047Y-101257500D02*
X73016666Y-101205119D01*
X72964285Y-101100357D01*
X72964285Y-100943214D01*
X73016666Y-100838452D01*
X73121428Y-100786071D01*
X73697619Y-100786071D01*
X72964285Y-99424166D02*
X73697619Y-99424166D01*
X73069047Y-99424166D02*
X73016666Y-99371785D01*
X72964285Y-99267023D01*
X72964285Y-99109880D01*
X73016666Y-99005119D01*
X73121428Y-98952738D01*
X73697619Y-98952738D01*
X73697619Y-97957500D02*
X73121428Y-97957500D01*
X73016666Y-98009880D01*
X72964285Y-98114642D01*
X72964285Y-98324166D01*
X73016666Y-98428928D01*
X73645238Y-97957500D02*
X73697619Y-98062261D01*
X73697619Y-98324166D01*
X73645238Y-98428928D01*
X73540476Y-98481309D01*
X73435714Y-98481309D01*
X73330952Y-98428928D01*
X73278571Y-98324166D01*
X73278571Y-98062261D01*
X73226190Y-97957500D01*
X73645238Y-96962261D02*
X73697619Y-97067023D01*
X73697619Y-97276547D01*
X73645238Y-97381309D01*
X73592857Y-97433690D01*
X73488095Y-97486071D01*
X73173809Y-97486071D01*
X73069047Y-97433690D01*
X73016666Y-97381309D01*
X72964285Y-97276547D01*
X72964285Y-97067023D01*
X73016666Y-96962261D01*
X73697619Y-96490833D02*
X72597619Y-96490833D01*
X73697619Y-96019404D02*
X73121428Y-96019404D01*
X73016666Y-96071785D01*
X72964285Y-96176547D01*
X72964285Y-96333690D01*
X73016666Y-96438452D01*
X73069047Y-96490833D01*
X73121428Y-94290833D02*
X73173809Y-94133690D01*
X73226190Y-94081309D01*
X73330952Y-94028928D01*
X73488095Y-94028928D01*
X73592857Y-94081309D01*
X73645238Y-94133690D01*
X73697619Y-94238452D01*
X73697619Y-94657500D01*
X72597619Y-94657500D01*
X72597619Y-94290833D01*
X72650000Y-94186071D01*
X72702380Y-94133690D01*
X72807142Y-94081309D01*
X72911904Y-94081309D01*
X73016666Y-94133690D01*
X73069047Y-94186071D01*
X73121428Y-94290833D01*
X73121428Y-94657500D01*
X73645238Y-93138452D02*
X73697619Y-93243214D01*
X73697619Y-93452738D01*
X73645238Y-93557500D01*
X73540476Y-93609880D01*
X73121428Y-93609880D01*
X73016666Y-93557500D01*
X72964285Y-93452738D01*
X72964285Y-93243214D01*
X73016666Y-93138452D01*
X73121428Y-93086071D01*
X73226190Y-93086071D01*
X73330952Y-93609880D01*
X73697619Y-92143214D02*
X72597619Y-92143214D01*
X73645238Y-92143214D02*
X73697619Y-92247976D01*
X73697619Y-92457500D01*
X73645238Y-92562261D01*
X73592857Y-92614642D01*
X73488095Y-92667023D01*
X73173809Y-92667023D01*
X73069047Y-92614642D01*
X73016666Y-92562261D01*
X72964285Y-92457500D01*
X72964285Y-92247976D01*
X73016666Y-92143214D01*
X73697619Y-91147976D02*
X73121428Y-91147976D01*
X73016666Y-91200357D01*
X72964285Y-91305119D01*
X72964285Y-91514642D01*
X73016666Y-91619404D01*
X73645238Y-91147976D02*
X73697619Y-91252738D01*
X73697619Y-91514642D01*
X73645238Y-91619404D01*
X73540476Y-91671785D01*
X73435714Y-91671785D01*
X73330952Y-91619404D01*
X73278571Y-91514642D01*
X73278571Y-91252738D01*
X73226190Y-91147976D01*
X73697619Y-90624166D02*
X72964285Y-90624166D01*
X73173809Y-90624166D02*
X73069047Y-90571785D01*
X73016666Y-90519404D01*
X72964285Y-90414642D01*
X72964285Y-90309880D01*
X72964285Y-90100357D02*
X72964285Y-89681309D01*
X73697619Y-89943214D02*
X72754761Y-89943214D01*
X72650000Y-89890833D01*
X72597619Y-89786071D01*
X72597619Y-89681309D01*
X73645238Y-88057500D02*
X73697619Y-88162261D01*
X73697619Y-88371785D01*
X73645238Y-88476547D01*
X73540476Y-88528928D01*
X73121428Y-88528928D01*
X73016666Y-88476547D01*
X72964285Y-88371785D01*
X72964285Y-88162261D01*
X73016666Y-88057500D01*
X73121428Y-88005119D01*
X73226190Y-88005119D01*
X73330952Y-88528928D01*
X73697619Y-87533690D02*
X72964285Y-87533690D01*
X73173809Y-87533690D02*
X73069047Y-87481309D01*
X73016666Y-87428928D01*
X72964285Y-87324166D01*
X72964285Y-87219404D01*
X72964285Y-86957500D02*
X73697619Y-86747976D01*
X73173809Y-86538452D01*
X73697619Y-86328928D01*
X72964285Y-86119404D01*
X73645238Y-85281309D02*
X73697619Y-85386071D01*
X73697619Y-85595595D01*
X73645238Y-85700357D01*
X73540476Y-85752738D01*
X73121428Y-85752738D01*
X73016666Y-85700357D01*
X72964285Y-85595595D01*
X72964285Y-85386071D01*
X73016666Y-85281309D01*
X73121428Y-85228928D01*
X73226190Y-85228928D01*
X73330952Y-85752738D01*
X73697619Y-84757500D02*
X72964285Y-84757500D01*
X72597619Y-84757500D02*
X72650000Y-84809880D01*
X72702380Y-84757500D01*
X72650000Y-84705119D01*
X72597619Y-84757500D01*
X72702380Y-84757500D01*
X72964285Y-84390833D02*
X72964285Y-83971785D01*
X72597619Y-84233690D02*
X73540476Y-84233690D01*
X73645238Y-84181309D01*
X73697619Y-84076547D01*
X73697619Y-83971785D01*
X73645238Y-83186071D02*
X73697619Y-83290833D01*
X73697619Y-83500357D01*
X73645238Y-83605119D01*
X73540476Y-83657500D01*
X73121428Y-83657500D01*
X73016666Y-83605119D01*
X72964285Y-83500357D01*
X72964285Y-83290833D01*
X73016666Y-83186071D01*
X73121428Y-83133690D01*
X73226190Y-83133690D01*
X73330952Y-83657500D01*
X73697619Y-82662261D02*
X72964285Y-82662261D01*
X73173809Y-82662261D02*
X73069047Y-82609880D01*
X73016666Y-82557500D01*
X72964285Y-82452738D01*
X72964285Y-82347976D01*
X72964285Y-81981309D02*
X73697619Y-81981309D01*
X73069047Y-81981309D02*
X73016666Y-81928928D01*
X72964285Y-81824166D01*
X72964285Y-81667023D01*
X73016666Y-81562261D01*
X73121428Y-81509880D01*
X73697619Y-81509880D01*
X73592857Y-80986071D02*
X73645238Y-80933690D01*
X73697619Y-80986071D01*
X73645238Y-81038452D01*
X73592857Y-80986071D01*
X73697619Y-80986071D01*
X73016666Y-80986071D02*
X73069047Y-80933690D01*
X73121428Y-80986071D01*
X73069047Y-81038452D01*
X73016666Y-80986071D01*
X73121428Y-80986071D01*
X73697619Y-79624166D02*
X72597619Y-79624166D01*
X73383333Y-79257500D01*
X72597619Y-78890833D01*
X73697619Y-78890833D01*
X72702380Y-78419404D02*
X72650000Y-78367023D01*
X72597619Y-78262261D01*
X72597619Y-78000357D01*
X72650000Y-77895595D01*
X72702380Y-77843214D01*
X72807142Y-77790833D01*
X72911904Y-77790833D01*
X73069047Y-77843214D01*
X73697619Y-78471785D01*
X73697619Y-77790833D01*
X73645238Y-77267023D02*
X73697619Y-77267023D01*
X73802380Y-77319404D01*
X73854761Y-77371785D01*
X72702380Y-76009880D02*
X72650000Y-75957500D01*
X72597619Y-75852738D01*
X72597619Y-75590833D01*
X72650000Y-75486071D01*
X72702380Y-75433690D01*
X72807142Y-75381309D01*
X72911904Y-75381309D01*
X73069047Y-75433690D01*
X73697619Y-76062261D01*
X73697619Y-75381309D01*
X73592857Y-74909880D02*
X73645238Y-74857500D01*
X73697619Y-74909880D01*
X73645238Y-74962261D01*
X73592857Y-74909880D01*
X73697619Y-74909880D01*
X72597619Y-73862261D02*
X72597619Y-74386071D01*
X73121428Y-74438452D01*
X73069047Y-74386071D01*
X73016666Y-74281309D01*
X73016666Y-74019404D01*
X73069047Y-73914642D01*
X73121428Y-73862261D01*
X73226190Y-73809880D01*
X73488095Y-73809880D01*
X73592857Y-73862261D01*
X73645238Y-73914642D01*
X73697619Y-74019404D01*
X73697619Y-74281309D01*
X73645238Y-74386071D01*
X73592857Y-74438452D01*
X73697619Y-73338452D02*
X72964285Y-73338452D01*
X73069047Y-73338452D02*
X73016666Y-73286071D01*
X72964285Y-73181309D01*
X72964285Y-73024166D01*
X73016666Y-72919404D01*
X73121428Y-72867023D01*
X73697619Y-72867023D01*
X73121428Y-72867023D02*
X73016666Y-72814642D01*
X72964285Y-72709880D01*
X72964285Y-72552738D01*
X73016666Y-72447976D01*
X73121428Y-72395595D01*
X73697619Y-72395595D01*
X73697619Y-71871785D02*
X72964285Y-71871785D01*
X73069047Y-71871785D02*
X73016666Y-71819404D01*
X72964285Y-71714642D01*
X72964285Y-71557500D01*
X73016666Y-71452738D01*
X73121428Y-71400357D01*
X73697619Y-71400357D01*
X73121428Y-71400357D02*
X73016666Y-71347976D01*
X72964285Y-71243214D01*
X72964285Y-71086071D01*
X73016666Y-70981309D01*
X73121428Y-70928928D01*
X73697619Y-70928928D01*
X73645238Y-70352738D02*
X73697619Y-70352738D01*
X73802380Y-70405119D01*
X73854761Y-70457500D01*
X73697619Y-69043214D02*
X72597619Y-69043214D01*
X73383333Y-68676547D01*
X72597619Y-68309880D01*
X73697619Y-68309880D01*
X72597619Y-67890833D02*
X72597619Y-67209880D01*
X73016666Y-67576547D01*
X73016666Y-67419404D01*
X73069047Y-67314642D01*
X73121428Y-67262261D01*
X73226190Y-67209880D01*
X73488095Y-67209880D01*
X73592857Y-67262261D01*
X73645238Y-67314642D01*
X73697619Y-67419404D01*
X73697619Y-67733690D01*
X73645238Y-67838452D01*
X73592857Y-67890833D01*
X73645238Y-66686071D02*
X73697619Y-66686071D01*
X73802380Y-66738452D01*
X73854761Y-66790833D01*
X72597619Y-65481309D02*
X72597619Y-64800357D01*
X73016666Y-65167023D01*
X73016666Y-65009880D01*
X73069047Y-64905119D01*
X73121428Y-64852738D01*
X73226190Y-64800357D01*
X73488095Y-64800357D01*
X73592857Y-64852738D01*
X73645238Y-64905119D01*
X73697619Y-65009880D01*
X73697619Y-65324166D01*
X73645238Y-65428928D01*
X73592857Y-65481309D01*
X73697619Y-64328928D02*
X72964285Y-64328928D01*
X73069047Y-64328928D02*
X73016666Y-64276547D01*
X72964285Y-64171785D01*
X72964285Y-64014642D01*
X73016666Y-63909880D01*
X73121428Y-63857500D01*
X73697619Y-63857500D01*
X73121428Y-63857500D02*
X73016666Y-63805119D01*
X72964285Y-63700357D01*
X72964285Y-63543214D01*
X73016666Y-63438452D01*
X73121428Y-63386071D01*
X73697619Y-63386071D01*
X73697619Y-62862261D02*
X72964285Y-62862261D01*
X73069047Y-62862261D02*
X73016666Y-62809880D01*
X72964285Y-62705119D01*
X72964285Y-62547976D01*
X73016666Y-62443214D01*
X73121428Y-62390833D01*
X73697619Y-62390833D01*
X73121428Y-62390833D02*
X73016666Y-62338452D01*
X72964285Y-62233690D01*
X72964285Y-62076547D01*
X73016666Y-61971785D01*
X73121428Y-61919404D01*
X73697619Y-61919404D01*
%TD*%
M02*
