%TF.GenerationSoftware,KiCad,Pcbnew,(5.1.10)-1*%
%TF.CreationDate,2022-01-02T16:59:21+01:00*%
%TF.ProjectId,BasicROM,42617369-6352-44f4-9d2e-6b696361645f,rev?*%
%TF.SameCoordinates,Original*%
%TF.FileFunction,Soldermask,Bot*%
%TF.FilePolarity,Negative*%
%FSLAX46Y46*%
G04 Gerber Fmt 4.6, Leading zero omitted, Abs format (unit mm)*
G04 Created by KiCad (PCBNEW (5.1.10)-1) date 2022-01-02 16:59:21*
%MOMM*%
%LPD*%
G01*
G04 APERTURE LIST*
%ADD10O,2.400000X2.400000*%
%ADD11R,2.400000X2.400000*%
%ADD12C,1.400000*%
%ADD13C,1.610000*%
%ADD14O,1.600000X1.600000*%
%ADD15R,1.600000X1.600000*%
%ADD16C,1.600000*%
G04 APERTURE END LIST*
D10*
%TO.C,C6*%
X163430000Y-139700000D03*
D11*
X138430000Y-139700000D03*
%TD*%
D12*
%TO.C,X1*%
X81508600Y-67310000D03*
X88700000Y-134060000D03*
X88700000Y-131560000D03*
X88700000Y-129060000D03*
X88700000Y-126560000D03*
X88700000Y-124060000D03*
X88700000Y-121560000D03*
X88700000Y-119060000D03*
X88700000Y-116560000D03*
X88700000Y-114060000D03*
X88700000Y-111560000D03*
X88700000Y-109060000D03*
X88700000Y-106560000D03*
X88700000Y-104060000D03*
X88700000Y-101560000D03*
X88700000Y-99060000D03*
X88700000Y-96560000D03*
X88700000Y-94060000D03*
X88700000Y-91560000D03*
X88700000Y-89060000D03*
X88700000Y-86560000D03*
X88700000Y-84060000D03*
X88700000Y-81560000D03*
X88700000Y-79060000D03*
X88700000Y-76560000D03*
X88700000Y-74060000D03*
X88700000Y-71560000D03*
X88700000Y-69060000D03*
X88700000Y-66560000D03*
X88700000Y-64060000D03*
X93700000Y-134060000D03*
X93700000Y-131560000D03*
X93700000Y-129060000D03*
X93700000Y-126560000D03*
X93700000Y-124060000D03*
X93700000Y-121560000D03*
X93700000Y-119060000D03*
X93700000Y-116560000D03*
X93700000Y-114060000D03*
X93700000Y-111560000D03*
X93700000Y-109060000D03*
X93700000Y-106560000D03*
X93700000Y-104060000D03*
X93700000Y-101560000D03*
X93700000Y-99060000D03*
X93700000Y-96560000D03*
X93700000Y-94060000D03*
X93700000Y-91560000D03*
X93700000Y-89060000D03*
X93700000Y-86560000D03*
X93700000Y-84060000D03*
X93700000Y-81560000D03*
X93700000Y-79060000D03*
X93700000Y-76560000D03*
X93700000Y-74060000D03*
X93700000Y-71560000D03*
X93700000Y-69060000D03*
X93700000Y-66560000D03*
X93700000Y-64060000D03*
D13*
X81200000Y-57810000D03*
D12*
X86588600Y-133350000D03*
X86588600Y-130810000D03*
X86588600Y-128270000D03*
X86588600Y-125730000D03*
X86588600Y-123190000D03*
X86588600Y-120650000D03*
X86588600Y-118110000D03*
X86588600Y-115570000D03*
X86588600Y-113030000D03*
X86588600Y-110490000D03*
X86588600Y-107950000D03*
X86588600Y-105410000D03*
X86588600Y-102870000D03*
X86588600Y-100330000D03*
X86588600Y-97790000D03*
X86588600Y-95250000D03*
X86588600Y-92710000D03*
X86588600Y-90170000D03*
X86588600Y-87630000D03*
X86588600Y-85090000D03*
X86588600Y-82550000D03*
X86588600Y-80010000D03*
X86588600Y-77470000D03*
X86588600Y-74930000D03*
X86588600Y-72390000D03*
X86588600Y-69850000D03*
X86588600Y-67310000D03*
X86588600Y-64770000D03*
X86588600Y-62230000D03*
X81508600Y-133350000D03*
X81508600Y-130810000D03*
X81508600Y-128270000D03*
X81508600Y-125730000D03*
X81508600Y-123190000D03*
X81508600Y-120650000D03*
X81508600Y-118110000D03*
X81508600Y-115570000D03*
X81508600Y-113030000D03*
X81508600Y-110490000D03*
X81508600Y-107950000D03*
X81508600Y-105410000D03*
X81508600Y-102870000D03*
X81508600Y-100330000D03*
X81508600Y-97790000D03*
X81508600Y-95250000D03*
X81508600Y-92710000D03*
X81508600Y-90170000D03*
X81508600Y-87630000D03*
X81508600Y-85090000D03*
X81508600Y-82550000D03*
X81508600Y-80010000D03*
X81508600Y-77470000D03*
X81508600Y-74930000D03*
X81508600Y-72390000D03*
X81508600Y-69850000D03*
X81508600Y-64770000D03*
X81508600Y-62230000D03*
D13*
X78968600Y-143510000D03*
X78968600Y-54610000D03*
%TD*%
D14*
%TO.C,U2*%
X137160000Y-60960000D03*
X121920000Y-93980000D03*
X137160000Y-63500000D03*
X121920000Y-91440000D03*
X137160000Y-66040000D03*
X121920000Y-88900000D03*
X137160000Y-68580000D03*
X121920000Y-86360000D03*
X137160000Y-71120000D03*
X121920000Y-83820000D03*
X137160000Y-73660000D03*
X121920000Y-81280000D03*
X137160000Y-76200000D03*
X121920000Y-78740000D03*
X137160000Y-78740000D03*
X121920000Y-76200000D03*
X137160000Y-81280000D03*
X121920000Y-73660000D03*
X137160000Y-83820000D03*
X121920000Y-71120000D03*
X137160000Y-86360000D03*
X121920000Y-68580000D03*
X137160000Y-88900000D03*
X121920000Y-66040000D03*
X137160000Y-91440000D03*
X121920000Y-63500000D03*
X137160000Y-93980000D03*
D15*
X121920000Y-60960000D03*
%TD*%
D14*
%TO.C,U4*%
X109964759Y-133690000D03*
X102344759Y-136230000D03*
X109964759Y-136230000D03*
D15*
X102344759Y-133690000D03*
%TD*%
D14*
%TO.C,R2*%
X109914759Y-143890000D03*
D16*
X102294759Y-143890000D03*
%TD*%
D14*
%TO.C,R1*%
X120764759Y-133640000D03*
D16*
X113144759Y-133640000D03*
%TD*%
D14*
%TO.C,D1*%
X109914759Y-140090000D03*
D15*
X102294759Y-140090000D03*
%TD*%
D16*
%TO.C,C5*%
X116880000Y-143510000D03*
D15*
X119380000Y-143510000D03*
%TD*%
D14*
%TO.C,U3*%
X158750000Y-60960000D03*
X143510000Y-99060000D03*
X158750000Y-63500000D03*
X143510000Y-96520000D03*
X158750000Y-66040000D03*
X143510000Y-93980000D03*
X158750000Y-68580000D03*
X143510000Y-91440000D03*
X158750000Y-71120000D03*
X143510000Y-88900000D03*
X158750000Y-73660000D03*
X143510000Y-86360000D03*
X158750000Y-76200000D03*
X143510000Y-83820000D03*
X158750000Y-78740000D03*
X143510000Y-81280000D03*
X158750000Y-81280000D03*
X143510000Y-78740000D03*
X158750000Y-83820000D03*
X143510000Y-76200000D03*
X158750000Y-86360000D03*
X143510000Y-73660000D03*
X158750000Y-88900000D03*
X143510000Y-71120000D03*
X158750000Y-91440000D03*
X143510000Y-68580000D03*
X158750000Y-93980000D03*
X143510000Y-66040000D03*
X158750000Y-96520000D03*
X143510000Y-63500000D03*
X158750000Y-99060000D03*
D15*
X143510000Y-60960000D03*
%TD*%
D14*
%TO.C,U1*%
X132080000Y-114300000D03*
X124460000Y-137160000D03*
X132080000Y-116840000D03*
X124460000Y-134620000D03*
X132080000Y-119380000D03*
X124460000Y-132080000D03*
X132080000Y-121920000D03*
X124460000Y-129540000D03*
X132080000Y-124460000D03*
X124460000Y-127000000D03*
X132080000Y-127000000D03*
X124460000Y-124460000D03*
X132080000Y-129540000D03*
X124460000Y-121920000D03*
X132080000Y-132080000D03*
X124460000Y-119380000D03*
X132080000Y-134620000D03*
X124460000Y-116840000D03*
X132080000Y-137160000D03*
D15*
X124460000Y-114300000D03*
%TD*%
D14*
%TO.C,SW1*%
X163830000Y-111760000D03*
X156210000Y-119380000D03*
X163830000Y-114300000D03*
X156210000Y-116840000D03*
X163830000Y-116840000D03*
X156210000Y-114300000D03*
X163830000Y-119380000D03*
D15*
X156210000Y-111760000D03*
%TD*%
D14*
%TO.C,RN1*%
X168910000Y-119380000D03*
X168910000Y-116840000D03*
X168910000Y-114300000D03*
X168910000Y-111760000D03*
D15*
X168910000Y-109220000D03*
%TD*%
D14*
%TO.C,C4*%
X153830000Y-105410000D03*
D16*
X163830000Y-105410000D03*
%TD*%
D14*
%TO.C,C3*%
X127160000Y-144780000D03*
D16*
X137160000Y-144780000D03*
%TD*%
D14*
%TO.C,C2*%
X145890000Y-55880000D03*
D16*
X135890000Y-55880000D03*
%TD*%
D14*
%TO.C,C1*%
X121920000Y-99220000D03*
D16*
X121920000Y-109220000D03*
%TD*%
M02*
